<?xml version="1.0" encoding="utf-8"?>
<!-- Generator: Adobe Illustrator 25.0.0, SVG Export Plug-In . SVG Version: 6.00 Build 0)  -->
<svg version="1.1" id="Layer_1" xmlns="http://www.w3.org/2000/svg" xmlns:xlink="http://www.w3.org/1999/xlink" x="0px" y="0px"
	 viewBox="0 0 391.07 374.38" style="enable-background:new 0 0 391.07 374.38;" xml:space="preserve">
<style type="text/css">
	.st0{fill:#FFD787;}
	.st1{fill:url(#SVGID_1_);}
	.st2{fill:url(#SVGID_2_);}
	.st3{fill:url(#SVGID_3_);}
	.st4{fill:#D6A94B;}
	.st5{fill:#E79A00;}
	.st6{fill:url(#SVGID_4_);}
	.st7{fill:url(#SVGID_5_);}
	.st8{fill:#00356E;}
	.st9{fill:url(#SVGID_6_);}
	.st10{fill:#291500;}
	.st11{fill:none;stroke:#000000;stroke-width:2.1253;stroke-miterlimit:10;}
	.st12{fill:url(#SVGID_7_);}
	.st13{fill:url(#SVGID_8_);}
	.st14{fill:url(#SVGID_9_);}
	.st15{fill:#4D2700;}
	.st16{fill:url(#SVGID_10_);}
	.st17{fill:#D68B29;}
	.st18{fill:url(#SVGID_11_);}
	.st19{fill:url(#SVGID_12_);}
	.st20{fill:#FDFEFE;}
	.st21{fill:url(#SVGID_13_);}
	.st22{fill:#FFCA75;}
</style>
<g>
	<circle class="st0" cx="195.62" cy="185.91" r="135.12"/>
	<linearGradient id="SVGID_1_" gradientUnits="userSpaceOnUse" x1="195.6158" y1="213.1445" x2="195.6158" y2="680.3277">
		<stop  offset="0" style="stop-color:#E77700;stop-opacity:0"/>
		<stop  offset="1" style="stop-color:#AB3F00"/>
	</linearGradient>
	<circle class="st1" cx="195.62" cy="185.91" r="135.12"/>
	
		<radialGradient id="SVGID_2_" cx="196.1679" cy="21.0669" r="145.091" gradientTransform="matrix(0.9999 0.0161 -0.0101 0.6262 0.2384 4.7096)" gradientUnits="userSpaceOnUse">
		<stop  offset="0" style="stop-color:#FFFFFF"/>
		<stop  offset="1" style="stop-color:#FFFFFF;stop-opacity:0"/>
	</radialGradient>
	<circle class="st2" cx="195.62" cy="185.91" r="135.12"/>
	
		<radialGradient id="SVGID_3_" cx="201.8212" cy="379.0908" r="178.7536" gradientTransform="matrix(0.9999 -0.0159 0.0105 0.6613 -3.9536 131.6151)" gradientUnits="userSpaceOnUse">
		<stop  offset="0" style="stop-color:#FFFFFF"/>
		<stop  offset="1" style="stop-color:#FFFFFF;stop-opacity:0"/>
	</radialGradient>
	<circle class="st3" cx="195.62" cy="185.91" r="130.37"/>
	<path class="st4" d="M195.53,276.08c-49.01,0-88.88-39.88-88.88-88.89c0-9.25,1.42-18.36,4.21-27.08l0.05-0.16
		c11.85-36.87,45.86-61.65,84.63-61.65c36.76,0,70.15,23.06,83.15,57.4l0,0l0.08,0.21c3.75,9.99,5.66,20.51,5.66,31.27
		C284.42,236.21,244.55,276.08,195.53,276.08z"/>
	<path class="st0" d="M84.01,256.61c0.19,4.75,3.36,9.3,3.77,14.11c-4.92-2.7-9.08,0.85-10.15,5.93c-1.34,6.36,3.2,13.03,9.05,15.44
		c9.51,3.92,20.08-6.18,16.32-15.87"/>
	<path class="st0" d="M71.71,233.75c-3.17-1.1-5.85-0.85-8.87,0.78c-3.53,1.9-5.88,2.8-9.97,2.93c-4.37,0.13-11.14,1.96-9.18,7.91
		c1.38,4.17,6.53,3.95,10.08,4.07c-1.37,2.5-3.04,6.07,0.23,8.38c2.58,1.83,6.45,0.05,8.26-2.17c-0.76,1.64-0.18,3.05,1.21,4.22
		c2.38,2,5.41,1.33,7.98,0.06c5.27-2.62,11.82-10.37,10.16-16.5"/>
	<path class="st0" d="M307.06,256.61c-0.19,4.75-3.36,9.3-3.77,14.11c4.92-2.7,9.08,0.85,10.15,5.93c1.34,6.36-3.2,13.03-9.05,15.44
		c-9.51,3.92-20.08-6.18-16.32-15.87"/>
	<path class="st0" d="M319.36,233.75c3.17-1.1,5.85-0.85,8.87,0.78c3.53,1.9,5.88,2.8,9.97,2.93c4.37,0.13,11.14,1.96,9.18,7.91
		c-1.38,4.17-6.53,3.95-10.08,4.07c1.37,2.5,3.04,6.07-0.23,8.38c-2.58,1.83-6.45,0.05-8.26-2.17c0.76,1.64,0.18,3.05-1.21,4.22
		c-2.38,2-5.41,1.33-7.98,0.06c-5.27-2.62-11.82-10.37-10.16-16.5"/>
	<path class="st4" d="M81.87,256.16c-0.03-0.09-0.02-0.04-0.02-0.04l0.02,0.05l0.05,0.13l0.14,0.31c0.1,0.21,0.22,0.43,0.34,0.64
		c0.24,0.43,0.53,0.86,0.8,1.29c0.58,0.84,1.19,1.68,1.87,2.47c0.55,0.63,0.48,1.58-0.15,2.12c-0.63,0.55-1.58,0.48-2.12-0.14
		c-0.05-0.06-0.1-0.13-0.15-0.2c-0.56-0.91-1.18-1.78-1.78-2.68l-0.91-1.36l-0.45-0.72l-0.23-0.39l-0.12-0.22l-0.06-0.13
		c-0.03-0.06-0.04-0.07-0.09-0.22c-0.25-0.79,0.19-1.63,0.98-1.88C80.78,254.93,81.62,255.37,81.87,256.16z"/>
	<path class="st4" d="M312.06,257.06c-0.05,0.15-0.06,0.16-0.09,0.22l-0.06,0.13l-0.12,0.22l-0.23,0.39l-0.45,0.72l-0.91,1.36
		c-0.6,0.9-1.21,1.77-1.78,2.68c-0.44,0.71-1.36,0.93-2.07,0.49c-0.71-0.44-0.93-1.36-0.49-2.07c0.04-0.07,0.1-0.14,0.15-0.2
		c0.68-0.78,1.29-1.62,1.87-2.47c0.28-0.43,0.56-0.85,0.8-1.29c0.12-0.22,0.24-0.43,0.34-0.64l0.14-0.31l0.05-0.13l0.02-0.05
		c0,0,0.02-0.05-0.02,0.04c0.25-0.79,1.09-1.23,1.88-0.98C311.87,255.43,312.31,256.27,312.06,257.06z"/>
	<g>
		<path class="st5" d="M280.23,187.19c0,7.93-1.1,15.6-3.15,22.87c-0.62,2.21-1.33,4.38-2.12,6.51c-0.42,1.13-0.86,2.25-1.33,3.35
			c-0.03,0.07-0.06,0.13-0.08,0.19c-0.83,1.94-1.72,3.84-2.68,5.7h-0.01c-0.44,0.85-0.89,1.68-1.35,2.51
			c-0.92,1.66-1.91,3.28-2.95,4.87c-0.26,0.4-0.53,0.79-0.79,1.19c-0.53,0.78-1.07,1.55-1.62,2.31c-0.01,0.01-0.02,0.01-0.02,0.02
			c-0.28,0.38-0.56,0.75-0.84,1.13c-0.28,0.38-0.57,0.75-0.86,1.12c-0.29,0.38-0.59,0.75-0.88,1.11c-1.18,1.48-2.42,2.91-3.71,4.29
			c-0.32,0.35-0.64,0.69-0.97,1.03c-0.32,0.34-0.65,0.68-0.98,1.01c-1,1.01-2.02,1.99-3.06,2.95c-0.35,0.32-0.7,0.63-1.06,0.95
			c-0.35,0.31-0.71,0.62-1.06,0.92c-0.72,0.62-1.45,1.22-2.19,1.81c-0.25,0.2-0.5,0.4-0.75,0.59c-0.49,0.39-0.99,0.77-1.49,1.14
			c-0.38,0.28-0.76,0.56-1.15,0.84c-2.31,1.66-4.71,3.21-7.19,4.64c-0.82,0.47-1.64,0.92-2.47,1.36c-0.42,0.23-0.84,0.45-1.27,0.66
			c-0.88,0.45-1.77,0.89-2.68,1.31c-0.39,0.18-0.79,0.37-1.19,0.54c-0.93,0.42-1.87,0.82-2.82,1.2c-0.39,0.16-0.77,0.31-1.16,0.46
			c-0.9,0.35-1.8,0.68-2.71,0.99c-0.42,0.15-0.85,0.29-1.27,0.44c-0.54,0.17-1.08,0.34-1.62,0.51c-0.42,0.13-0.84,0.25-1.26,0.37
			c-0.35,0.11-0.71,0.21-1.07,0.31c-0.38,0.1-0.76,0.2-1.14,0.3c-0.51,0.14-1.03,0.27-1.54,0.39c-0.27,0.06-0.54,0.13-0.81,0.18
			c-0.37,0.09-0.73,0.17-1.1,0.25c-3.18,0.69-6.42,1.19-9.71,1.51c-0.37,0.03-0.74,0.06-1.11,0.1c-0.16,0.01-0.32,0.02-0.47,0.03
			c-0.49,0.04-0.98,0.07-1.47,0.1c-0.56,0.03-1.11,0.06-1.67,0.08c-1.12,0.05-2.25,0.07-3.38,0.07c-0.58,0-1.16-0.01-1.73-0.02
			c-0.58-0.01-1.16-0.03-1.73-0.05c-0.58-0.02-1.15-0.05-1.72-0.09c-0.57-0.03-1.14-0.07-1.71-0.12c-0.44-0.03-0.88-0.07-1.32-0.12
			c-2.26-0.21-4.5-0.52-6.71-0.92c-0.38-0.07-0.76-0.14-1.15-0.21c-0.58-0.11-1.16-0.23-1.74-0.36c-0.47-0.1-0.95-0.21-1.43-0.32
			c-0.85-0.2-1.7-0.41-2.55-0.64c-0.31-0.08-0.62-0.17-0.93-0.26c-0.25-0.06-0.5-0.13-0.75-0.21c-0.21-0.06-0.43-0.12-0.64-0.19
			c-0.29-0.08-0.58-0.17-0.86-0.26c-1.1-0.34-2.2-0.7-3.28-1.1c-0.41-0.13-0.81-0.28-1.21-0.43c-0.34-0.13-0.69-0.26-1.04-0.4
			c-0.39-0.15-0.78-0.3-1.16-0.46c-0.45-0.18-0.89-0.36-1.33-0.55c-0.44-0.19-0.88-0.38-1.32-0.58c-1.31-0.58-2.6-1.2-3.87-1.85
			c-0.43-0.21-0.85-0.43-1.27-0.66c-0.42-0.22-0.84-0.45-1.25-0.68c-3.57-1.97-6.98-4.2-10.21-6.65c-0.36-0.27-0.71-0.55-1.06-0.82
			c-2.03-1.6-3.99-3.29-5.87-5.07c-0.35-0.32-0.69-0.65-1.02-0.98c-0.34-0.33-0.68-0.66-1.01-1c-0.33-0.33-0.66-0.67-0.98-1.01
			c-2.72-2.84-5.24-5.88-7.55-9.08c-0.18-0.25-0.36-0.51-0.54-0.77c-0.82-1.16-1.6-2.34-2.36-3.54c-0.26-0.41-0.5-0.81-0.75-1.22
			c-0.38-0.61-0.74-1.24-1.1-1.87c-0.26-0.45-0.52-0.9-0.76-1.36c-0.32-0.57-0.63-1.15-0.93-1.74c-0.97-1.86-1.86-3.77-2.69-5.71
			c-0.02-0.06-0.05-0.12-0.07-0.19c-0.82-1.91-1.55-3.86-2.22-5.84c-0.45-1.33-0.86-2.67-1.24-4.02
			c-2.05-7.27-3.14-14.94-3.14-22.86c0-4.13,0.3-8.2,0.87-12.16c0.68-4.68,1.74-9.23,3.16-13.63v-0.01
			c10.89-33.88,42.67-58.4,80.17-58.4c36.08,0,66.86,22.69,78.84,54.57l0.01,0.01c1.43,3.81,2.6,7.75,3.47,11.81
			C279.58,175.12,280.23,181.08,280.23,187.19z"/>
	</g>
	<g>
		
			<radialGradient id="SVGID_4_" cx="199.3778" cy="177.2616" r="171.3225" gradientTransform="matrix(1 0 0 0.5926 0 72.2114)" gradientUnits="userSpaceOnUse">
			<stop  offset="0.4101" style="stop-color:#E77700;stop-opacity:0"/>
			<stop  offset="1" style="stop-color:#AB3F00"/>
		</radialGradient>
		<path class="st6" d="M280.23,187.19c0,7.93-1.1,15.6-3.15,22.87c-0.62,2.21-1.33,4.38-2.12,6.51c-0.42,1.13-0.86,2.25-1.33,3.35
			c-0.03,0.07-0.06,0.13-0.08,0.19c-0.83,1.94-1.72,3.84-2.68,5.7h-0.01c-0.44,0.85-0.89,1.68-1.35,2.51
			c-0.92,1.66-1.91,3.28-2.95,4.87c-0.26,0.4-0.53,0.79-0.79,1.19c-0.53,0.78-1.07,1.55-1.62,2.31c-0.01,0.01-0.02,0.01-0.02,0.02
			c-0.28,0.38-0.56,0.75-0.84,1.13c-0.28,0.38-0.57,0.75-0.86,1.12c-0.29,0.38-0.59,0.75-0.88,1.11c-1.18,1.48-2.42,2.91-3.71,4.29
			c-0.32,0.35-0.64,0.69-0.97,1.03c-0.32,0.34-0.65,0.68-0.98,1.01c-1,1.01-2.02,1.99-3.06,2.95c-0.35,0.32-0.7,0.63-1.06,0.95
			c-0.35,0.31-0.71,0.62-1.06,0.92c-0.72,0.62-1.45,1.22-2.19,1.81c-0.25,0.2-0.5,0.4-0.75,0.59c-0.49,0.39-0.99,0.77-1.49,1.14
			c-0.38,0.28-0.76,0.56-1.15,0.84c-2.31,1.66-4.71,3.21-7.19,4.64c-0.82,0.47-1.64,0.92-2.47,1.36c-0.42,0.23-0.84,0.45-1.27,0.66
			c-0.88,0.45-1.77,0.89-2.68,1.31c-0.39,0.18-0.79,0.37-1.19,0.54c-0.93,0.42-1.87,0.82-2.82,1.2c-0.39,0.16-0.77,0.31-1.16,0.46
			c-0.9,0.35-1.8,0.68-2.71,0.99c-0.42,0.15-0.85,0.29-1.27,0.44c-0.54,0.17-1.08,0.34-1.62,0.51c-0.42,0.13-0.84,0.25-1.26,0.37
			c-0.35,0.11-0.71,0.21-1.07,0.31c-0.38,0.1-0.76,0.2-1.14,0.3c-0.51,0.14-1.03,0.27-1.54,0.39c-0.27,0.06-0.54,0.13-0.81,0.18
			c-0.37,0.09-0.73,0.17-1.1,0.25c-3.18,0.69-6.42,1.19-9.71,1.51c-0.37,0.03-0.74,0.06-1.11,0.1c-0.16,0.01-0.32,0.02-0.47,0.03
			c-0.49,0.04-0.98,0.07-1.47,0.1c-0.56,0.03-1.11,0.06-1.67,0.08c-1.12,0.05-2.25,0.07-3.38,0.07c-0.58,0-1.16-0.01-1.73-0.02
			c-0.58-0.01-1.16-0.03-1.73-0.05c-0.58-0.02-1.15-0.05-1.72-0.09c-0.57-0.03-1.14-0.07-1.71-0.12c-0.44-0.03-0.88-0.07-1.32-0.12
			c-2.26-0.21-4.5-0.52-6.71-0.92c-0.38-0.07-0.76-0.14-1.15-0.21c-0.58-0.11-1.16-0.23-1.74-0.36c-0.47-0.1-0.95-0.21-1.43-0.32
			c-0.85-0.2-1.7-0.41-2.55-0.64c-0.31-0.08-0.62-0.17-0.93-0.26c-0.25-0.06-0.5-0.13-0.75-0.21c-0.21-0.06-0.43-0.12-0.64-0.19
			c-0.29-0.08-0.58-0.17-0.86-0.26c-1.1-0.34-2.2-0.7-3.28-1.1c-0.41-0.13-0.81-0.28-1.21-0.43c-0.34-0.13-0.69-0.26-1.04-0.4
			c-0.39-0.15-0.78-0.3-1.16-0.46c-0.45-0.18-0.89-0.36-1.33-0.55c-0.44-0.19-0.88-0.38-1.32-0.58c-1.31-0.58-2.6-1.2-3.87-1.85
			c-0.43-0.21-0.85-0.43-1.27-0.66c-0.42-0.22-0.84-0.45-1.25-0.68c-3.57-1.97-6.98-4.2-10.21-6.65c-0.36-0.27-0.71-0.55-1.06-0.82
			c-2.03-1.6-3.99-3.29-5.87-5.07c-0.35-0.32-0.69-0.65-1.02-0.98c-0.34-0.33-0.68-0.66-1.01-1c-0.33-0.33-0.66-0.67-0.98-1.01
			c-2.72-2.84-5.24-5.88-7.55-9.08c-0.18-0.25-0.36-0.51-0.54-0.77c-0.82-1.16-1.6-2.34-2.36-3.54c-0.26-0.41-0.5-0.81-0.75-1.22
			c-0.38-0.61-0.74-1.24-1.1-1.87c-0.26-0.45-0.52-0.9-0.76-1.36c-0.32-0.57-0.63-1.15-0.93-1.74c-0.97-1.86-1.86-3.77-2.69-5.71
			c-0.02-0.06-0.05-0.12-0.07-0.19c-0.82-1.91-1.55-3.86-2.22-5.84c-0.45-1.33-0.86-2.67-1.24-4.02
			c-2.05-7.27-3.14-14.94-3.14-22.86c0-4.13,0.3-8.2,0.87-12.16c0.68-4.68,1.74-9.23,3.16-13.63v-0.01
			c10.89-33.88,42.67-58.4,80.17-58.4c36.08,0,66.86,22.69,78.84,54.57l0.01,0.01c1.43,3.81,2.6,7.75,3.47,11.81
			C279.58,175.12,280.23,181.08,280.23,187.19z"/>
	</g>
	<radialGradient id="SVGID_5_" cx="193.813" cy="203.9056" r="50.5321" gradientUnits="userSpaceOnUse">
		<stop  offset="0" style="stop-color:#FFE100"/>
		<stop  offset="1" style="stop-color:#E7C100;stop-opacity:0"/>
	</radialGradient>
	<circle class="st7" cx="193.81" cy="203.91" r="50.53"/>
	<g>
		<path class="st8" d="M278.34,169.38l-22.72-17.89c-2.65-2.3-6.61-2.21-9.17,0.2l-7.87,7.44l5.9,10.22
			c0.64,1.12-0.82,2.25-1.74,1.35l-42.21-41.24c-2.76-2.7-7.19-2.67-9.91,0.07l-39.96,40.19c-0.41,0.42-1.09-0.07-0.82-0.59
			l3.93-7.77l-9.51-8.01c-1.83-1.54-4.49-1.54-6.31,0l-22.1,18.68l-3.16,3c0.68-4.68,1.74-9.23,3.16-13.63v-0.01
			c10.89-33.88,42.67-58.4,80.17-58.4c36.08,0,66.86,22.69,78.84,54.57l0.01,0.01C276.3,161.38,277.47,165.32,278.34,169.38z"/>
	</g>
	<g>
		<linearGradient id="SVGID_6_" gradientUnits="userSpaceOnUse" x1="195.5138" y1="101.6982" x2="195.5138" y2="182.6664">
			<stop  offset="0" style="stop-color:#006EE7;stop-opacity:0"/>
			<stop  offset="1" style="stop-color:#E70077"/>
		</linearGradient>
		<path class="st9" d="M278.34,169.38l-22.72-17.89c-2.65-2.3-6.61-2.21-9.17,0.2l-7.87,7.44l5.9,10.22
			c0.64,1.12-0.82,2.25-1.74,1.35l-42.21-41.24c-2.76-2.7-7.19-2.67-9.91,0.07l-39.96,40.19c-0.41,0.42-1.09-0.07-0.82-0.59
			l3.93-7.77l-9.51-8.01c-1.83-1.54-4.49-1.54-6.31,0l-22.1,18.68l-3.16,3c0.68-4.68,1.74-9.23,3.16-13.63v-0.01
			c10.89-33.88,42.67-58.4,80.17-58.4c36.08,0,66.86,22.69,78.84,54.57l0.01,0.01C276.3,161.38,277.47,165.32,278.34,169.38z"/>
	</g>
	<g>
		<path class="st10" d="M279.06,201.65c-0.15-2.82-8.85-17.38-9.45-17.83c1.75,0.65,3.42-0.31,3.42-0.31
			c-3.67-4.48-9.61-14.17-9.78-14.17c1.17,7.89,0.03,15.71-2.43,22.83c0.81-0.08,1.63-0.16,2.44-0.24
			c-1.33,2.51-2.75,4.92-4.25,7.23c1.04-0.35,2.07-0.71,3.1-1.09c-1.54,2.56-3.16,5.01-4.87,7.34c1.29,0.15,2.57,0.31,3.86,0.46
			c-1.07,1.97-2.2,3.88-3.37,5.73c-0.78,0.79-1.7,1.34-2.82,1.1c-0.98-0.21-1.62-0.8-2.06-1.56c-0.24-1.25-0.49-2.48-0.79-3.7
			c0.97,0.17,1.93,0.35,2.89,0.53c-1.15-3.46-2.51-6.78-4.04-9.93c0.65,0.19,1.3,0.39,1.95,0.59c-1.43-2.99-4.98-9.81-5.09-9.81
			c-0.55,4-1.4,7.87-2.52,11.56c0.54,0.01,1.08,0.03,1.62,0.04c-1.2,2.76-2.55,5.38-4.02,7.86c0.94-0.05,1.88-0.12,2.82-0.18
			c-1.4,2.51-2.92,4.89-4.54,7.14c0.64-0.1,1.28-0.19,1.92-0.29c-0.78,1.05-1.57,2.08-2.39,3.07c1.58,0.3,3.16,0.6,4.75,0.91
			c0.62,7.93-2.77,17.97-17.76,24.81c-4.98,2.27-10.04,4.35-15.3,5.86c-1.4,0.4-4.63,0.72-6.89,1.64c-1.11,0.45-0.7,2.11,0.49,2.06
			c6.77-0.31,20-4.33,20.58-2.83c0.4,3.8-8.1,6.61-10.47,7.38c-6.74,2.18-14.32,3.62-21.42,3.82c-7.05,0.2-13.87-1.4-20.74-2.66
			c-3.61-0.66-7.24-1.72-10.66-3.04c-1.4-0.54-4.21-1.3-4.75-2.87c1.26-0.97,20.14,3.95,19.8,0.36c-0.16-1.75-8.26-2.41-9.58-2.79
			c-5.32-1.54-10.76-4.22-15.36-7.31c-2.74-1.84-5.46-4.12-7.74-6.49c-1.21-1.25-2.13-3.15-3.36-4.47c-0.7-0.75-1.97-0.15-1.82,0.86
			c0.12,0.81,0.6,1.74,1.16,2.62c0.98,1.54-0.4,3.49-2.17,3.08c-3.91-0.9-8.8-2.58-11.65-8.43c-1.28-3.02,0.22-4.24,1.48-3.9
			c1.54,0.41,4.06,10.23,6.48,7.71c0.82-0.86-0.47-6.43-0.36-7.52c0.15-1.33,0.26-2.72,1.65-3.37c2.59-1.21,4.92,1.17,6.21,3.14
			c2.72,4.18,5.18,9.45,9.41,12.36c0.87,0.6,3.9,2.22,4.36,0.71c0.42-1.38-2.55-5.14-3.26-6.18c-2.45-3.53-4.41-7.25-5.62-11.36
			c-0.21-0.74-0.3-2.29-0.56-3.37c1.27-0.24,2.54-0.49,3.82-0.73c-0.82-0.99-1.62-2.02-2.4-3.07c0.64,0.1,1.28,0.19,1.92,0.29
			c-1.62-2.25-3.13-4.63-4.53-7.14c0.94,0.06,1.88,0.13,2.82,0.18c-1.47-2.48-2.82-5.1-4.02-7.86c0.54-0.01,1.08-0.03,1.62-0.04
			c-1.12-3.69-1.98-7.56-2.53-11.56c-0.1,0-3.66,6.82-5.09,9.81c0.65-0.2,1.31-0.4,1.96-0.59c-1.54,3.15-2.9,6.47-4.05,9.93
			c0.97-0.18,1.93-0.36,2.89-0.53c-0.29,1.22-0.55,2.45-0.79,3.7c-0.44,0.76-1.07,1.35-2.05,1.56c-1.12,0.24-2.04-0.31-2.82-1.1
			c-1.18-1.85-2.31-3.76-3.38-5.73c1.29-0.15,2.58-0.31,3.86-0.46c-1.7-2.33-3.33-4.78-4.86-7.34c1.03,0.38,2.06,0.74,3.09,1.09
			c-1.5-2.31-2.92-4.72-4.25-7.23c0.82,0.08,1.63,0.16,2.45,0.24c-2.46-7.12-3.6-14.94-2.44-22.83c-0.17,0-6.1,9.69-9.77,14.17
			c-0.01,0,1.66,0.96,3.42,0.31c-0.61,0.45-8.59,15.13-8.74,17.95c1.26-0.56-1.27,2.88,0,2.36c-1.23,3.31,2.21,2.39,1.27,5.92
			c0.38,1.35,0.79,2.69,1.24,4.02c0.67,1.98,1.4,3.93,2.22,5.84c0.02,0.07,0.05,0.13,0.07,0.19c0.83,1.94,1.72,3.85,2.69,5.71
			c0.3,0.59,0.61,1.17,0.93,1.74c0.24,0.46,0.5,0.91,0.76,1.36c0.36,0.63,0.72,1.26,1.1,1.87c0.25,0.41,0.49,0.81,0.75,1.22
			c0.76,1.2,1.54,2.38,2.36,3.54c0.18,0.26,0.36,0.52,0.54,0.77c2.31,3.2,4.83,6.24,7.55,9.08c0.32,0.34,0.65,0.68,0.98,1.01
			c0.33,0.34,0.67,0.67,1.01,1c0.33,0.33,0.67,0.66,1.02,0.98c1.88,1.78,3.84,3.47,5.87,5.07c0.35,0.27,0.7,0.55,1.06,0.82
			c3.23,2.45,6.64,4.68,10.21,6.65c0.41,0.23,0.83,0.46,1.25,0.68c0.42,0.23,0.84,0.45,1.27,0.66c1.27,0.65,2.56,1.27,3.87,1.85
			c0.44,0.2,0.88,0.39,1.32,0.58c0.44,0.19,0.88,0.37,1.33,0.55c0.38,0.16,0.77,0.31,1.16,0.46c0.35,0.14,0.7,0.27,1.04,0.4
			c0.4,0.15,0.8,0.3,1.21,0.43c1.08,0.4,2.18,0.76,3.28,1.1c0.28,0.09,0.57,0.18,0.86,0.26c0.21,0.07,0.43,0.13,0.64,0.19
			c0.25,0.08,0.5,0.15,0.75,0.21c0.31,0.09,0.62,0.18,0.93,0.26c0.85,0.23,1.7,0.44,2.55,0.64c0.48,0.11,0.96,0.22,1.43,0.32
			c0.58,0.13,1.16,0.25,1.74,0.36c0.39,0.07,0.77,0.14,1.15,0.21c2.21,0.4,4.45,0.71,6.71,0.92c0.44,0.05,0.88,0.09,1.32,0.12
			c0.57,0.05,1.14,0.09,1.71,0.12c0.57,0.04,1.14,0.07,1.72,0.09c0.57,0.02,1.15,0.04,1.73,0.05c0.57,0.01,1.15,0.02,1.73,0.02
			c1.13,0,2.26-0.02,3.38-0.07c0.56-0.02,1.11-0.05,1.67-0.08c0.49-0.03,0.98-0.06,1.47-0.1c0.15-0.01,0.31-0.02,0.47-0.03
			c0.37-0.04,0.74-0.07,1.11-0.1c3.29-0.32,6.53-0.82,9.71-1.51c0.37-0.08,0.73-0.16,1.1-0.25c0.27-0.05,0.54-0.12,0.81-0.18
			c0.51-0.12,1.03-0.25,1.54-0.39c0.38-0.1,0.76-0.2,1.14-0.3c0.36-0.1,0.72-0.2,1.07-0.31c0.42-0.12,0.84-0.24,1.26-0.37
			c0.54-0.17,1.08-0.34,1.62-0.51c0.42-0.15,0.85-0.29,1.27-0.44c0.91-0.31,1.81-0.64,2.71-0.99c0.39-0.15,0.77-0.3,1.16-0.46
			c0.95-0.38,1.89-0.78,2.82-1.2c0.4-0.17,0.8-0.36,1.19-0.54c0.91-0.42,1.8-0.86,2.68-1.31c0.43-0.21,0.85-0.43,1.27-0.66
			c0.83-0.44,1.65-0.89,2.47-1.36c2.48-1.43,4.88-2.98,7.19-4.64c0.39-0.28,0.77-0.56,1.15-0.84c0.5-0.37,1-0.75,1.49-1.14
			c0.24-0.19,0.49-0.38,0.73-0.58c0.74-0.6,1.48-1.2,2.2-1.82c0.35-0.3,0.71-0.61,1.06-0.92c0.36-0.32,0.71-0.63,1.06-0.95
			c1.04-0.96,2.06-1.94,3.06-2.95c0.33-0.33,0.66-0.67,0.98-1.01c0.33-0.34,0.65-0.68,0.97-1.03c1.29-1.39,2.52-2.82,3.71-4.29
			c0.29-0.36,0.59-0.73,0.88-1.11c0.29-0.37,0.58-0.74,0.86-1.12c0.28-0.38,0.56-0.75,0.84-1.13c0-0.01,0.01-0.01,0.02-0.02
			c0.55-0.76,1.09-1.53,1.62-2.31c0.26-0.4,0.53-0.79,0.79-1.19c1.03-1.58,2.02-3.21,2.95-4.87c0.46-0.83,0.91-1.66,1.35-2.51h0.01
			c0.96-1.86,1.85-3.76,2.68-5.7c-0.01,0-0.01-0.01-0.01-0.01c0.03-0.06,0.06-0.12,0.08-0.18h0.01c0.47-1.1,0.91-2.22,1.33-3.35
			c0.79-2.13,1.5-4.3,2.12-6.51c-0.94-3.52,2.6-3.34,1.36-6.66C279.72,203.92,277.79,201.09,279.06,201.65z M264.51,228.72
			c0.06,0.68-0.22,1.35-0.68,1.86c-7.69,8.46-17.3,16.4-24.28,13.26c-2.89-1.3,1.55-6.16,2.67-7.54c3.62-4.47,5.05-7.35,6.59-9.71
			c1.29-1.97,3.61-4.35,6.21-3.14c1.38,0.65,1.5,2.04,1.64,3.37c0.12,1.09-0.52,4.15,0.29,5.01c2.42,2.52,4.3-4.79,5.84-5.2
			c1.26-0.34,1.61,0.98,1.72,2.08C264.51,228.72,264.51,228.72,264.51,228.72z"/>
	</g>
	<g>
		<path class="st10" d="M196.02,272.34c-46.95,0-85.14-38.2-85.14-85.15c0-8.86,1.36-17.59,4.03-25.94l0.04-0.15
			c11.35-35.32,43.93-59.05,81.07-59.05c35.21,0,67.2,22.09,79.65,54.99l0,0l0.08,0.2c3.6,9.57,5.42,19.65,5.42,29.95
			C281.17,234.14,242.97,272.34,196.02,272.34z M116.79,161.54l-0.05,0.15c-2.64,8.2-3.98,16.78-3.98,25.5
			c0,45.91,37.35,83.27,83.26,83.27c45.91,0,83.27-37.35,83.27-83.27c0-10.01-1.76-19.8-5.23-29.11l-0.08-0.19
			c-12.13-32.27-43.46-53.96-77.96-53.96C159.75,103.93,127.93,127.08,116.79,161.54z"/>
	</g>
	<g>
		<path class="st11" d="M285.1,154.49"/>
	</g>
	<g>
		<path class="st11" d="M109.38,148.5"/>
	</g>
	<path class="st4" d="M114.78,221.24c-0.39-1.05-1.56-1.58-2.61-1.19c-2.49,0.93-4.81,1.78-7.17,2.71c-2.35,0.89-4.68,1.82-7,2.75
		c-2.31,0.95-4.62,1.92-6.9,2.94c-1.15,0.48-2.26,1.08-3.39,1.62c-1.13,0.54-2.24,1.11-3.34,1.71c-3.95,2.05-7.74,4.4-11.41,6.95
		c-0.72-0.63-1.63-1-2.53-1.14c-0.92-0.16-1.82-0.09-2.68,0.06c-0.87,0.14-1.7,0.4-2.5,0.71c-1.59,0.65-3.08,1.48-4.45,2.46
		c-1.27,0.9-2.52,1.57-3.85,1.8c-0.65,0.12-1.29,0.14-1.87,0.04c-0.29-0.06-0.58-0.12-0.83-0.23c-0.13-0.05-0.25-0.11-0.35-0.17
		c-0.05-0.03-0.11-0.06-0.14-0.09c-0.03-0.02-0.11-0.08-0.03-0.05c-0.94-0.57-2.17-0.27-2.75,0.67s-0.27,2.17,0.67,2.75
		c0.26,0.14,0.35,0.16,0.51,0.22c0.15,0.05,0.28,0.09,0.41,0.13c0.27,0.07,0.54,0.13,0.8,0.17c0.53,0.09,1.04,0.11,1.55,0.1
		c1.02-0.03,1.99-0.24,2.88-0.57c0.9-0.32,1.7-0.77,2.46-1.25c0.74-0.49,1.44-1.1,2.04-1.61c1.14-1.01,2.38-1.92,3.73-2.57
		c0.67-0.33,1.37-0.6,2.07-0.77c0.7-0.19,1.43-0.25,2.1-0.17c0.51,0.06,0.99,0.21,1.42,0.45c-0.01,0.01-0.03,0.02-0.04,0.03
		l-3.05,2.24l-2.93,2.41l-1.47,1.21l-1.39,1.3l-2.82,2.59c-0.06,0.05-0.12,0.12-0.18,0.18c-0.72,0.85-0.61,2.11,0.24,2.83
		c0.85,0.72,2.11,0.61,2.83-0.24l0.09-0.11l2.35-2.78l1.19-1.38c0.42-0.44,0.86-0.86,1.29-1.29l2.61-2.57l2.79-2.37
		c0.04-0.03,0.08-0.07,0.12-0.1c0,0,0,0.01,0.01,0.01c0.36,0.66,0.64,1.35,0.83,2.06c0.18,0.71,0.21,1.44,0.18,2.16
		c-0.15,1.43-0.8,2.76-1.78,3.85c-0.97,1.09-2.22,1.97-3.56,2.65l-0.03,0.01c-0.11,0.06-0.21,0.13-0.3,0.21
		c-0.58,0.53-0.63,1.44-0.1,2.02s1.44,0.63,2.02,0.1c1.28-1.16,2.53-2.36,3.52-3.8c0.99-1.44,1.69-3.16,1.78-4.94
		c0.06-1.79-0.45-3.51-1.25-5.02c-0.05-0.09-0.11-0.18-0.16-0.27c0.05-0.04,0.09-0.08,0.14-0.12l1.48-1.09
		c0.99-0.72,1.96-1.48,2.98-2.16c2.05-1.34,4.12-2.68,6.27-3.86l1.6-0.92l1.65-0.83c1.11-0.54,2.18-1.14,3.31-1.63l3.37-1.51
		l3.44-1.34c1.16-0.41,2.34-0.77,3.51-1.16c1.18-0.34,2.37-0.66,3.56-0.95c2.38-0.54,4.86-1,7.21-1.12l0.05,0
		c0.2-0.01,0.4-0.05,0.6-0.12C114.63,223.45,115.17,222.29,114.78,221.24z"/>
	<path class="st4" d="M341.06,242.78c-0.57-0.94-1.8-1.24-2.75-0.67c0.08-0.04,0,0.02-0.03,0.05c-0.04,0.03-0.09,0.06-0.14,0.09
		c-0.11,0.06-0.22,0.13-0.35,0.17c-0.25,0.12-0.54,0.18-0.83,0.23c-0.59,0.11-1.23,0.08-1.87-0.04c-1.32-0.23-2.57-0.9-3.85-1.8
		c-1.37-0.98-2.86-1.82-4.45-2.46c-0.8-0.32-1.63-0.57-2.5-0.71c-0.86-0.15-1.77-0.22-2.68-0.06c-0.9,0.14-1.81,0.51-2.53,1.14
		c-3.67-2.55-7.46-4.9-11.41-6.95c-1.1-0.6-2.21-1.18-3.34-1.71c-1.13-0.54-2.23-1.13-3.39-1.62c-2.28-1.03-4.59-1.99-6.9-2.94
		c-2.32-0.92-4.65-1.86-7-2.75c-2.36-0.92-4.68-1.78-7.17-2.71c-0.19-0.07-0.4-0.11-0.61-0.12c-1.12-0.05-2.07,0.81-2.12,1.93
		c-0.05,1.12,0.81,2.07,1.93,2.12l0.04,0c2.36,0.11,4.83,0.57,7.21,1.12c1.19,0.29,2.38,0.62,3.56,0.95
		c1.17,0.38,2.34,0.75,3.51,1.16l3.44,1.34l3.37,1.51c1.13,0.49,2.21,1.09,3.31,1.63l1.65,0.83l1.6,0.92
		c2.16,1.18,4.22,2.52,6.27,3.86c1.02,0.68,1.99,1.44,2.98,2.16l1.48,1.09c0.05,0.04,0.09,0.08,0.14,0.12
		c-0.05,0.09-0.11,0.18-0.16,0.27c-0.79,1.5-1.31,3.23-1.25,5.02c0.09,1.79,0.78,3.51,1.78,4.94c1,1.45,2.25,2.64,3.52,3.8
		c0.09,0.08,0.2,0.16,0.31,0.21c0.7,0.36,1.57,0.08,1.93-0.62c0.36-0.7,0.08-1.57-0.62-1.93l-0.02-0.01
		c-1.34-0.69-2.59-1.56-3.56-2.65c-0.98-1.08-1.63-2.42-1.78-3.85c-0.03-0.71,0-1.44,0.18-2.16c0.19-0.71,0.47-1.4,0.83-2.06
		c0,0,0-0.01,0.01-0.01c0.04,0.03,0.08,0.07,0.12,0.1l2.79,2.37l2.61,2.57c0.43,0.43,0.87,0.85,1.29,1.29l1.19,1.38l2.35,2.78
		l0.1,0.12c0.05,0.06,0.11,0.12,0.17,0.17c0.82,0.75,2.09,0.7,2.84-0.12c0.75-0.82,0.7-2.09-0.12-2.84l-2.82-2.59l-1.39-1.3
		l-1.47-1.21l-2.93-2.41l-3.05-2.24c-0.01-0.01-0.03-0.02-0.04-0.03c0.42-0.24,0.9-0.39,1.41-0.45c0.67-0.08,1.4-0.02,2.1,0.17
		c0.71,0.17,1.4,0.44,2.07,0.77c1.35,0.65,2.59,1.56,3.73,2.57c0.6,0.51,1.3,1.13,2.04,1.61c0.76,0.48,1.56,0.94,2.46,1.25
		c0.89,0.32,1.86,0.53,2.88,0.57c0.51,0.01,1.02-0.01,1.55-0.1c0.26-0.04,0.53-0.1,0.8-0.17c0.14-0.04,0.27-0.08,0.41-0.13
		c0.16-0.06,0.25-0.08,0.51-0.22C341.33,244.95,341.63,243.72,341.06,242.78z"/>
	<path class="st4" d="M114.78,221.24c-0.39-1.05-1.56-1.58-2.61-1.19c-2.49,0.93-4.81,1.78-7.17,2.71c-2.35,0.89-4.68,1.82-7,2.75
		c-2.31,0.95-4.62,1.92-6.9,2.94c-1.15,0.48-2.26,1.08-3.39,1.62c-1.13,0.54-2.24,1.11-3.34,1.71c-3.95,2.05-7.74,4.4-11.41,6.95
		c-0.72-0.63-1.63-1-2.53-1.14c-0.92-0.16-1.82-0.09-2.68,0.06c-0.87,0.14-1.7,0.4-2.5,0.71c-1.59,0.65-3.08,1.48-4.45,2.46
		c-1.27,0.9-2.52,1.57-3.85,1.8c-0.65,0.12-1.29,0.14-1.87,0.04c-0.29-0.06-0.58-0.12-0.83-0.23c-0.13-0.05-0.25-0.11-0.35-0.17
		c-0.05-0.03-0.11-0.06-0.14-0.09c-0.03-0.02-0.11-0.08-0.03-0.05c-0.94-0.57-2.17-0.27-2.75,0.67s-0.27,2.17,0.67,2.75
		c0.26,0.14,0.35,0.16,0.51,0.22c0.15,0.05,0.28,0.09,0.41,0.13c0.27,0.07,0.54,0.13,0.8,0.17c0.53,0.09,1.04,0.11,1.55,0.1
		c1.02-0.03,1.99-0.24,2.88-0.57c0.9-0.32,1.7-0.77,2.46-1.25c0.74-0.49,1.44-1.1,2.04-1.61c1.14-1.01,2.38-1.92,3.73-2.57
		c0.67-0.33,1.37-0.6,2.07-0.77c0.7-0.19,1.43-0.25,2.1-0.17c0.51,0.06,0.99,0.21,1.42,0.45c-0.01,0.01-0.03,0.02-0.04,0.03
		l-3.05,2.24l-2.93,2.41l-1.47,1.21l-1.39,1.3l-2.82,2.59c-0.06,0.05-0.12,0.12-0.18,0.18c-0.72,0.85-0.61,2.11,0.24,2.83
		c0.85,0.72,2.11,0.61,2.83-0.24l0.09-0.11l2.35-2.78l1.19-1.38c0.42-0.44,0.86-0.86,1.29-1.29l2.61-2.57l2.79-2.37
		c0.04-0.03,0.08-0.07,0.12-0.1c0,0,0,0.01,0.01,0.01c0.36,0.66,0.64,1.35,0.83,2.06c0.18,0.71,0.21,1.44,0.18,2.16
		c-0.15,1.43-0.8,2.76-1.78,3.85c-0.97,1.09-2.22,1.97-3.56,2.65l-0.03,0.01c-0.11,0.06-0.21,0.13-0.3,0.21
		c-0.58,0.53-0.63,1.44-0.1,2.02s1.44,0.63,2.02,0.1c1.28-1.16,2.53-2.36,3.52-3.8c0.99-1.44,1.69-3.16,1.78-4.94
		c0.06-1.79-0.45-3.51-1.25-5.02c-0.05-0.09-0.11-0.18-0.16-0.27c0.05-0.04,0.09-0.08,0.14-0.12l1.48-1.09
		c0.99-0.72,1.96-1.48,2.98-2.16c2.05-1.34,4.12-2.68,6.27-3.86l1.6-0.92l1.65-0.83c1.11-0.54,2.18-1.14,3.31-1.63l3.37-1.51
		l3.44-1.34c1.16-0.41,2.34-0.77,3.51-1.16c1.18-0.34,2.37-0.66,3.56-0.95c2.38-0.54,4.86-1,7.21-1.12l0.05,0
		c0.2-0.01,0.4-0.05,0.6-0.12C114.63,223.45,115.17,222.29,114.78,221.24z"/>
	<path class="st4" d="M341.06,242.78c-0.57-0.94-1.8-1.24-2.75-0.67c0.08-0.04,0,0.02-0.03,0.05c-0.04,0.03-0.09,0.06-0.14,0.09
		c-0.11,0.06-0.22,0.13-0.35,0.17c-0.25,0.12-0.54,0.18-0.83,0.23c-0.59,0.11-1.23,0.08-1.87-0.04c-1.32-0.23-2.57-0.9-3.85-1.8
		c-1.37-0.98-2.86-1.82-4.45-2.46c-0.8-0.32-1.63-0.57-2.5-0.71c-0.86-0.15-1.77-0.22-2.68-0.06c-0.9,0.14-1.81,0.51-2.53,1.14
		c-3.67-2.55-7.46-4.9-11.41-6.95c-1.1-0.6-2.21-1.18-3.34-1.71c-1.13-0.54-2.23-1.13-3.39-1.62c-2.28-1.03-4.59-1.99-6.9-2.94
		c-2.32-0.92-4.65-1.86-7-2.75c-2.36-0.92-4.68-1.78-7.17-2.71c-0.19-0.07-0.4-0.11-0.61-0.12c-1.12-0.05-2.07,0.81-2.12,1.93
		c-0.05,1.12,0.81,2.07,1.93,2.12l0.04,0c2.36,0.11,4.83,0.57,7.21,1.12c1.19,0.29,2.38,0.62,3.56,0.95
		c1.17,0.38,2.34,0.75,3.51,1.16l3.44,1.34l3.37,1.51c1.13,0.49,2.21,1.09,3.31,1.63l1.65,0.83l1.6,0.92
		c2.16,1.18,4.22,2.52,6.27,3.86c1.02,0.68,1.99,1.44,2.98,2.16l1.48,1.09c0.05,0.04,0.09,0.08,0.14,0.12
		c-0.05,0.09-0.11,0.18-0.16,0.27c-0.79,1.5-1.31,3.23-1.25,5.02c0.09,1.79,0.78,3.51,1.78,4.94c1,1.45,2.25,2.64,3.52,3.8
		c0.09,0.08,0.2,0.16,0.31,0.21c0.7,0.36,1.57,0.08,1.93-0.62c0.36-0.7,0.08-1.57-0.62-1.93l-0.02-0.01
		c-1.34-0.69-2.59-1.56-3.56-2.65c-0.98-1.08-1.63-2.42-1.78-3.85c-0.03-0.71,0-1.44,0.18-2.16c0.19-0.71,0.47-1.4,0.83-2.06
		c0,0,0-0.01,0.01-0.01c0.04,0.03,0.08,0.07,0.12,0.1l2.79,2.37l2.61,2.57c0.43,0.43,0.87,0.85,1.29,1.29l1.19,1.38l2.35,2.78
		l0.1,0.12c0.05,0.06,0.11,0.12,0.17,0.17c0.82,0.75,2.09,0.7,2.84-0.12c0.75-0.82,0.7-2.09-0.12-2.84l-2.82-2.59l-1.39-1.3
		l-1.47-1.21l-2.93-2.41l-3.05-2.24c-0.01-0.01-0.03-0.02-0.04-0.03c0.42-0.24,0.9-0.39,1.41-0.45c0.67-0.08,1.4-0.02,2.1,0.17
		c0.71,0.17,1.4,0.44,2.07,0.77c1.35,0.65,2.59,1.56,3.73,2.57c0.6,0.51,1.3,1.13,2.04,1.61c0.76,0.48,1.56,0.94,2.46,1.25
		c0.89,0.32,1.86,0.53,2.88,0.57c0.51,0.01,1.02-0.01,1.55-0.1c0.26-0.04,0.53-0.1,0.8-0.17c0.14-0.04,0.27-0.08,0.41-0.13
		c0.16-0.06,0.25-0.08,0.51-0.22C341.33,244.95,341.63,243.72,341.06,242.78z"/>
	<radialGradient id="SVGID_7_" cx="114.8147" cy="216.7801" r="123.2535" gradientUnits="userSpaceOnUse">
		<stop  offset="0" style="stop-color:#E77700;stop-opacity:0"/>
		<stop  offset="1" style="stop-color:#AB3F00"/>
	</radialGradient>
	<path class="st12" d="M114.78,221.24c-0.39-1.05-1.56-1.58-2.61-1.19c-2.49,0.93-4.81,1.78-7.17,2.71c-2.35,0.89-4.68,1.82-7,2.75
		c-2.31,0.95-4.62,1.92-6.9,2.94c-1.15,0.48-2.26,1.08-3.39,1.62c-1.13,0.54-2.24,1.11-3.34,1.71c-3.95,2.05-7.74,4.4-11.41,6.95
		c-0.72-0.63-1.63-1-2.53-1.14c-0.92-0.16-1.82-0.09-2.68,0.06c-0.87,0.14-1.7,0.4-2.5,0.71c-1.59,0.65-3.08,1.48-4.45,2.46
		c-1.27,0.9-2.52,1.57-3.85,1.8c-0.65,0.12-1.29,0.14-1.87,0.04c-0.29-0.06-0.58-0.12-0.83-0.23c-0.13-0.05-0.25-0.11-0.35-0.17
		c-0.05-0.03-0.11-0.06-0.14-0.09c-0.03-0.02-0.11-0.08-0.03-0.05c-0.94-0.57-2.17-0.27-2.75,0.67s-0.27,2.17,0.67,2.75
		c0.26,0.14,0.35,0.16,0.51,0.22c0.15,0.05,0.28,0.09,0.41,0.13c0.27,0.07,0.54,0.13,0.8,0.17c0.53,0.09,1.04,0.11,1.55,0.1
		c1.02-0.03,1.99-0.24,2.88-0.57c0.9-0.32,1.7-0.77,2.46-1.25c0.74-0.49,1.44-1.1,2.04-1.61c1.14-1.01,2.38-1.92,3.73-2.57
		c0.67-0.33,1.37-0.6,2.07-0.77c0.7-0.19,1.43-0.25,2.1-0.17c0.51,0.06,0.99,0.21,1.42,0.45c-0.01,0.01-0.03,0.02-0.04,0.03
		l-3.05,2.24l-2.93,2.41l-1.47,1.21l-1.39,1.3l-2.82,2.59c-0.06,0.05-0.12,0.12-0.18,0.18c-0.72,0.85-0.61,2.11,0.24,2.83
		c0.85,0.72,2.11,0.61,2.83-0.24l0.09-0.11l2.35-2.78l1.19-1.38c0.42-0.44,0.86-0.86,1.29-1.29l2.61-2.57l2.79-2.37
		c0.04-0.03,0.08-0.07,0.12-0.1c0,0,0,0.01,0.01,0.01c0.36,0.66,0.64,1.35,0.83,2.06c0.18,0.71,0.21,1.44,0.18,2.16
		c-0.15,1.43-0.8,2.76-1.78,3.85c-0.97,1.09-2.22,1.97-3.56,2.65l-0.03,0.01c-0.11,0.06-0.21,0.13-0.3,0.21
		c-0.58,0.53-0.63,1.44-0.1,2.02s1.44,0.63,2.02,0.1c1.28-1.16,2.53-2.36,3.52-3.8c0.99-1.44,1.69-3.16,1.78-4.94
		c0.06-1.79-0.45-3.51-1.25-5.02c-0.05-0.09-0.11-0.18-0.16-0.27c0.05-0.04,0.09-0.08,0.14-0.12l1.48-1.09
		c0.99-0.72,1.96-1.48,2.98-2.16c2.05-1.34,4.12-2.68,6.27-3.86l1.6-0.92l1.65-0.83c1.11-0.54,2.18-1.14,3.31-1.63l3.37-1.51
		l3.44-1.34c1.16-0.41,2.34-0.77,3.51-1.16c1.18-0.34,2.37-0.66,3.56-0.95c2.38-0.54,4.86-1,7.21-1.12l0.05,0
		c0.2-0.01,0.4-0.05,0.6-0.12C114.63,223.45,115.17,222.29,114.78,221.24z"/>
	<radialGradient id="SVGID_8_" cx="293.1712" cy="223.8948" r="94.278" gradientUnits="userSpaceOnUse">
		<stop  offset="0" style="stop-color:#E77700;stop-opacity:0"/>
		<stop  offset="1" style="stop-color:#AB3F00"/>
	</radialGradient>
	<path class="st13" d="M341.06,242.78c-0.57-0.94-1.8-1.24-2.75-0.67c0.08-0.04,0,0.02-0.03,0.05c-0.04,0.03-0.09,0.06-0.14,0.09
		c-0.11,0.06-0.22,0.13-0.35,0.17c-0.25,0.12-0.54,0.18-0.83,0.23c-0.59,0.11-1.23,0.08-1.87-0.04c-1.32-0.23-2.57-0.9-3.85-1.8
		c-1.37-0.98-2.86-1.82-4.45-2.46c-0.8-0.32-1.63-0.57-2.5-0.71c-0.86-0.15-1.77-0.22-2.68-0.06c-0.9,0.14-1.81,0.51-2.53,1.14
		c-3.67-2.55-7.46-4.9-11.41-6.95c-1.1-0.6-2.21-1.18-3.34-1.71c-1.13-0.54-2.23-1.13-3.39-1.62c-2.28-1.03-4.59-1.99-6.9-2.94
		c-2.32-0.92-4.65-1.86-7-2.75c-2.36-0.92-4.68-1.78-7.17-2.71c-0.19-0.07-0.4-0.11-0.61-0.12c-1.12-0.05-2.07,0.81-2.12,1.93
		c-0.05,1.12,0.81,2.07,1.93,2.12l0.04,0c2.36,0.11,4.83,0.57,7.21,1.12c1.19,0.29,2.38,0.62,3.56,0.95
		c1.17,0.38,2.34,0.75,3.51,1.16l3.44,1.34l3.37,1.51c1.13,0.49,2.21,1.09,3.31,1.63l1.65,0.83l1.6,0.92
		c2.16,1.18,4.22,2.52,6.27,3.86c1.02,0.68,1.99,1.44,2.98,2.16l1.48,1.09c0.05,0.04,0.09,0.08,0.14,0.12
		c-0.05,0.09-0.11,0.18-0.16,0.27c-0.79,1.5-1.31,3.23-1.25,5.02c0.09,1.79,0.78,3.51,1.78,4.94c1,1.45,2.25,2.64,3.52,3.8
		c0.09,0.08,0.2,0.16,0.31,0.21c0.7,0.36,1.57,0.08,1.93-0.62c0.36-0.7,0.08-1.57-0.62-1.93l-0.02-0.01
		c-1.34-0.69-2.59-1.56-3.56-2.65c-0.98-1.08-1.63-2.42-1.78-3.85c-0.03-0.71,0-1.44,0.18-2.16c0.19-0.71,0.47-1.4,0.83-2.06
		c0,0,0-0.01,0.01-0.01c0.04,0.03,0.08,0.07,0.12,0.1l2.79,2.37l2.61,2.57c0.43,0.43,0.87,0.85,1.29,1.29l1.19,1.38l2.35,2.78
		l0.1,0.12c0.05,0.06,0.11,0.12,0.17,0.17c0.82,0.75,2.09,0.7,2.84-0.12c0.75-0.82,0.7-2.09-0.12-2.84l-2.82-2.59l-1.39-1.3
		l-1.47-1.21l-2.93-2.41l-3.05-2.24c-0.01-0.01-0.03-0.02-0.04-0.03c0.42-0.24,0.9-0.39,1.41-0.45c0.67-0.08,1.4-0.02,2.1,0.17
		c0.71,0.17,1.4,0.44,2.07,0.77c1.35,0.65,2.59,1.56,3.73,2.57c0.6,0.51,1.3,1.13,2.04,1.61c0.76,0.48,1.56,0.94,2.46,1.25
		c0.89,0.32,1.86,0.53,2.88,0.57c0.51,0.01,1.02-0.01,1.55-0.1c0.26-0.04,0.53-0.1,0.8-0.17c0.14-0.04,0.27-0.08,0.41-0.13
		c0.16-0.06,0.25-0.08,0.51-0.22C341.33,244.95,341.63,243.72,341.06,242.78z"/>
	<path class="st4" d="M102.23,204.86c-0.38-1.52-0.8-2.76-1.26-4.09c-0.45-1.31-0.97-2.58-1.49-3.85c-1.06-2.52-2.22-5-3.51-7.39
		c-1.31-2.4-2.65-4.58-3.76-6.91c1.28-2.01,2.53-4.05,3.73-6.12c1.34-2.34,2.59-4.73,3.65-7.24l0.75-1.9
		c0.21-0.65,0.44-1.3,0.63-1.96c0.16-0.68,0.38-1.33,0.48-2.02c0.12-0.69,0.26-1.36,0.26-2.16c0.01-1.54-0.54-3.08-1.55-4.28
		c-0.99-1.2-2.55-2.09-4.19-2.07c-1.64-0.02-3.13,0.66-4.32,1.53c-0.56,0.48-1.15,0.93-1.61,1.48c-0.51,0.51-0.93,1.1-1.35,1.69
		c-1.68,2.38-2.45,5.27-2.63,8.08c-0.18,2.83,0.21,5.62,0.88,8.3c0.16,0.65,0.34,1.29,0.54,1.93l-2.67,3.09
		c-3.21,3.81-6.33,7.83-8.53,12.51c-1.06,2.35-1.92,4.84-2.34,7.46c-0.4,2.62-0.43,5.33-0.02,8l0,0.02
		c0.01,0.09,0.03,0.18,0.06,0.27c0.32,1.06,1.44,1.66,2.5,1.34c1.06-0.32,1.66-1.44,1.34-2.5c-0.65-2.18-0.94-4.48-0.8-6.79
		c0.14-2.31,0.68-4.63,1.52-6.85c1.7-4.47,4.47-8.58,7.57-12.39c0.64-0.8,1.3-1.59,1.97-2.37c0.47,1.32,1,2.62,1.57,3.9
		c-1.22,1.87-2.48,3.71-3.65,5.68c-1.38,2.34-2.58,4.83-3.34,7.48c-0.76,2.65-1.07,5.47-0.82,8.24c0.22,2.78,0.97,5.5,1.97,8.08
		c0.99,2.6,2.25,5.06,3.49,7.54c0.08,0.15,0.18,0.31,0.3,0.44c0.75,0.83,2.02,0.9,2.85,0.15c0.83-0.75,0.9-2.02,0.15-2.85
		l-0.01-0.01c-3.47-3.86-6.29-8.44-6.97-13.53c-0.32-2.53-0.1-5.13,0.63-7.6c0.71-2.48,1.83-4.85,3.15-7.1
		c0.94-1.6,2-3.19,3.05-4.78c0.95,1.92,2.01,3.77,2.93,5.56c1.19,2.33,2.26,4.72,3.11,7.18c0.42,1.23,0.79,2.48,1.11,3.72
		c0.3,1.23,0.56,2.57,0.65,3.68l0,0.05c0.01,0.11,0.03,0.21,0.05,0.32c0.27,1.08,1.36,1.73,2.43,1.47S102.49,205.93,102.23,204.86z
		 M89.39,175.3c-0.68-2.48-1.08-5.03-0.98-7.53c0.1-2.49,0.71-4.97,2.08-7c0.65-1.03,1.51-1.96,2.41-2.72c0.94-0.71,2-1.19,3.05-1.2
		c0.4-0.01,0.77,0.07,1.14,0.2c0.04,0.05,0.07,0.11,0.09,0.16c0.12,0.21,0.21,0.45,0.29,0.7c0.13,0.51,0.23,1.05,0.22,1.62
		c0,1.13-0.21,2.29-0.58,3.42c-0.69,2.28-1.82,4.46-3.07,6.54c-1.2,2.12-2.76,3.96-4.37,5.85l-0.21,0.25
		C89.44,175.48,89.41,175.39,89.39,175.3z M90.9,176.35c1.59-1.9,3.22-3.88,4.48-6.09c1.29-2.16,2.48-4.41,3.23-6.89
		c0.4-1.22,0.63-2.53,0.66-3.88c0.01-0.2-0.02-0.41-0.03-0.62c0.41,0.7,0.65,1.52,0.64,2.35c0.01,0.54-0.1,1.18-0.21,1.81
		c-0.09,0.63-0.29,1.25-0.42,1.87c-0.18,0.62-0.38,1.24-0.58,1.86l-0.69,1.83c-0.99,2.42-2.18,4.78-3.47,7.09
		c-0.97,1.76-2.03,3.47-3.11,5.17c-0.5-1.15-0.96-2.31-1.36-3.49C90.32,177.03,90.61,176.7,90.9,176.35z"/>
	<radialGradient id="SVGID_9_" cx="88.0418" cy="169.9537" r="120.9045" gradientUnits="userSpaceOnUse">
		<stop  offset="0" style="stop-color:#E77700;stop-opacity:0"/>
		<stop  offset="1" style="stop-color:#AB3F00"/>
	</radialGradient>
	<path class="st14" d="M102.23,204.86c-0.38-1.52-0.8-2.76-1.26-4.09c-0.45-1.31-0.97-2.58-1.49-3.85c-1.06-2.52-2.22-5-3.51-7.39
		c-1.31-2.4-2.65-4.58-3.76-6.91c1.28-2.01,2.53-4.05,3.73-6.12c1.34-2.34,2.59-4.73,3.65-7.24l0.75-1.9
		c0.21-0.65,0.44-1.3,0.63-1.96c0.16-0.68,0.38-1.33,0.48-2.02c0.12-0.69,0.26-1.36,0.26-2.16c0.01-1.54-0.54-3.08-1.55-4.28
		c-0.99-1.2-2.55-2.09-4.19-2.07c-1.64-0.02-3.13,0.66-4.32,1.53c-0.56,0.48-1.15,0.93-1.61,1.48c-0.51,0.51-0.93,1.1-1.35,1.69
		c-1.68,2.38-2.45,5.27-2.63,8.08c-0.18,2.83,0.21,5.62,0.88,8.3c0.16,0.65,0.34,1.29,0.54,1.93l-2.67,3.09
		c-3.21,3.81-6.33,7.83-8.53,12.51c-1.06,2.35-1.92,4.84-2.34,7.46c-0.4,2.62-0.43,5.33-0.02,8l0,0.02
		c0.01,0.09,0.03,0.18,0.06,0.27c0.32,1.06,1.44,1.66,2.5,1.34c1.06-0.32,1.66-1.44,1.34-2.5c-0.65-2.18-0.94-4.48-0.8-6.79
		c0.14-2.31,0.68-4.63,1.52-6.85c1.7-4.47,4.47-8.58,7.57-12.39c0.64-0.8,1.3-1.59,1.97-2.37c0.47,1.32,1,2.62,1.57,3.9
		c-1.22,1.87-2.48,3.71-3.65,5.68c-1.38,2.34-2.58,4.83-3.34,7.48c-0.76,2.65-1.07,5.47-0.82,8.24c0.22,2.78,0.97,5.5,1.97,8.08
		c0.99,2.6,2.25,5.06,3.49,7.54c0.08,0.15,0.18,0.31,0.3,0.44c0.75,0.83,2.02,0.9,2.85,0.15c0.83-0.75,0.9-2.02,0.15-2.85
		l-0.01-0.01c-3.47-3.86-6.29-8.44-6.97-13.53c-0.32-2.53-0.1-5.13,0.63-7.6c0.71-2.48,1.83-4.85,3.15-7.1
		c0.94-1.6,2-3.19,3.05-4.78c0.95,1.92,2.01,3.77,2.93,5.56c1.19,2.33,2.26,4.72,3.11,7.18c0.42,1.23,0.79,2.48,1.11,3.72
		c0.3,1.23,0.56,2.57,0.65,3.68l0,0.05c0.01,0.11,0.03,0.21,0.05,0.32c0.27,1.08,1.36,1.73,2.43,1.47S102.49,205.93,102.23,204.86z
		 M89.39,175.3c-0.68-2.48-1.08-5.03-0.98-7.53c0.1-2.49,0.71-4.97,2.08-7c0.65-1.03,1.51-1.96,2.41-2.72c0.94-0.71,2-1.19,3.05-1.2
		c0.4-0.01,0.77,0.07,1.14,0.2c0.04,0.05,0.07,0.11,0.09,0.16c0.12,0.21,0.21,0.45,0.29,0.7c0.13,0.51,0.23,1.05,0.22,1.62
		c0,1.13-0.21,2.29-0.58,3.42c-0.69,2.28-1.82,4.46-3.07,6.54c-1.2,2.12-2.76,3.96-4.37,5.85l-0.21,0.25
		C89.44,175.48,89.41,175.39,89.39,175.3z M90.9,176.35c1.59-1.9,3.22-3.88,4.48-6.09c1.29-2.16,2.48-4.41,3.23-6.89
		c0.4-1.22,0.63-2.53,0.66-3.88c0.01-0.2-0.02-0.41-0.03-0.62c0.41,0.7,0.65,1.52,0.64,2.35c0.01,0.54-0.1,1.18-0.21,1.81
		c-0.09,0.63-0.29,1.25-0.42,1.87c-0.18,0.62-0.38,1.24-0.58,1.86l-0.69,1.83c-0.99,2.42-2.18,4.78-3.47,7.09
		c-0.97,1.76-2.03,3.47-3.11,5.17c-0.5-1.15-0.96-2.31-1.36-3.49C90.32,177.03,90.61,176.7,90.9,176.35z"/>
	<g>
		<circle class="st15" cx="98.31" cy="144.28" r="4.22"/>
	</g>
	<path class="st4" d="M318.11,200.93c-0.42-2.62-1.28-5.11-2.34-7.46c-2.2-4.68-5.32-8.7-8.53-12.51l-2.67-3.09
		c0.2-0.64,0.38-1.28,0.54-1.93c0.67-2.68,1.06-5.47,0.88-8.3c-0.17-2.81-0.95-5.71-2.63-8.08c-0.42-0.59-0.84-1.18-1.35-1.69
		c-0.46-0.55-1.05-1.01-1.61-1.48c-1.2-0.87-2.68-1.56-4.32-1.53c-1.64-0.02-3.2,0.87-4.19,2.07c-1.01,1.21-1.56,2.74-1.55,4.28
		c0,0.8,0.14,1.47,0.26,2.16c0.11,0.69,0.33,1.35,0.48,2.02c0.2,0.66,0.42,1.31,0.63,1.96l0.75,1.9c1.06,2.51,2.31,4.9,3.65,7.24
		c1.2,2.07,2.45,4.11,3.73,6.12c-1.11,2.33-2.45,4.5-3.76,6.91c-1.29,2.39-2.45,4.87-3.51,7.39c-0.52,1.27-1.04,2.54-1.49,3.85
		c-0.46,1.33-0.88,2.58-1.26,4.09c-0.02,0.1-0.04,0.22-0.05,0.33c-0.08,1.11,0.74,2.07,1.85,2.16s2.07-0.74,2.16-1.85l0-0.04
		c0.08-1.11,0.35-2.45,0.65-3.68c0.32-1.25,0.69-2.49,1.11-3.72c0.85-2.46,1.92-4.85,3.11-7.18c0.92-1.79,1.98-3.64,2.93-5.56
		c1.05,1.59,2.11,3.18,3.05,4.78c1.32,2.25,2.45,4.62,3.15,7.1c0.72,2.47,0.95,5.07,0.63,7.6c-0.68,5.1-3.49,9.68-6.97,13.53
		l-0.01,0.02c-0.11,0.13-0.21,0.27-0.3,0.44c-0.5,1-0.1,2.21,0.89,2.71s2.21,0.1,2.71-0.89c1.25-2.47,2.5-4.94,3.49-7.54
		c1.01-2.58,1.75-5.3,1.97-8.08c0.26-2.78-0.06-5.59-0.82-8.24c-0.76-2.66-1.96-5.14-3.34-7.48c-1.17-1.97-2.43-3.81-3.65-5.68
		c0.58-1.28,1.1-2.58,1.57-3.9c0.67,0.78,1.33,1.57,1.97,2.37c3.09,3.81,5.86,7.92,7.57,12.39c0.85,2.23,1.38,4.54,1.52,6.85
		c0.14,2.31-0.14,4.61-0.8,6.79c-0.03,0.09-0.05,0.19-0.06,0.28c-0.17,1.1,0.59,2.12,1.68,2.28c1.1,0.17,2.12-0.59,2.28-1.68l0-0.01
		C318.54,206.26,318.51,203.55,318.11,200.93z M296.1,156.84c1.05,0.01,2.11,0.49,3.05,1.2c0.91,0.76,1.76,1.69,2.41,2.72
		c1.38,2.03,1.98,4.51,2.08,7c0.1,2.51-0.3,5.06-0.98,7.53c-0.02,0.09-0.06,0.18-0.08,0.27l-0.21-0.25
		c-1.6-1.89-3.17-3.73-4.37-5.85c-1.25-2.09-2.38-4.27-3.07-6.54c-0.37-1.13-0.57-2.3-0.58-3.42c-0.01-0.57,0.09-1.11,0.22-1.62
		c0.09-0.24,0.17-0.48,0.29-0.7c0.03-0.05,0.06-0.1,0.09-0.16C295.32,156.91,295.7,156.83,296.1,156.84z M300.66,180.86
		c-1.08-1.7-2.14-3.41-3.11-5.17c-1.29-2.31-2.49-4.67-3.47-7.09l-0.69-1.83c-0.19-0.62-0.4-1.23-0.58-1.86
		c-0.14-0.63-0.34-1.25-0.42-1.87c-0.1-0.63-0.22-1.27-0.21-1.81c-0.01-0.83,0.23-1.64,0.64-2.35c-0.01,0.21-0.04,0.41-0.03,0.62
		c0.02,1.35,0.25,2.66,0.66,3.88c0.76,2.47,1.94,4.73,3.23,6.89c1.25,2.21,2.88,4.19,4.48,6.09c0.29,0.34,0.58,0.68,0.87,1.01
		C301.61,178.55,301.16,179.71,300.66,180.86z"/>
	<radialGradient id="SVGID_10_" cx="293.2807" cy="136.9774" r="155.9108" gradientUnits="userSpaceOnUse">
		<stop  offset="0" style="stop-color:#E77700;stop-opacity:0"/>
		<stop  offset="1" style="stop-color:#AB3F00"/>
	</radialGradient>
	<path class="st16" d="M318.11,200.93c-0.42-2.62-1.28-5.11-2.34-7.46c-2.2-4.68-5.32-8.7-8.53-12.51l-2.67-3.09
		c0.2-0.64,0.38-1.28,0.54-1.93c0.67-2.68,1.06-5.47,0.88-8.3c-0.17-2.81-0.95-5.71-2.63-8.08c-0.42-0.59-0.84-1.18-1.35-1.69
		c-0.46-0.55-1.05-1.01-1.61-1.48c-1.2-0.87-2.68-1.56-4.32-1.53c-1.64-0.02-3.2,0.87-4.19,2.07c-1.01,1.21-1.56,2.74-1.55,4.28
		c0,0.8,0.14,1.47,0.26,2.16c0.11,0.69,0.33,1.35,0.48,2.02c0.2,0.66,0.42,1.31,0.63,1.96l0.75,1.9c1.06,2.51,2.31,4.9,3.65,7.24
		c1.2,2.07,2.45,4.11,3.73,6.12c-1.11,2.33-2.45,4.5-3.76,6.91c-1.29,2.39-2.45,4.87-3.51,7.39c-0.52,1.27-1.04,2.54-1.49,3.85
		c-0.46,1.33-0.88,2.58-1.26,4.09c-0.02,0.1-0.04,0.22-0.05,0.33c-0.08,1.11,0.74,2.07,1.85,2.16s2.07-0.74,2.16-1.85l0-0.04
		c0.08-1.11,0.35-2.45,0.65-3.68c0.32-1.25,0.69-2.49,1.11-3.72c0.85-2.46,1.92-4.85,3.11-7.18c0.92-1.79,1.98-3.64,2.93-5.56
		c1.05,1.59,2.11,3.18,3.05,4.78c1.32,2.25,2.45,4.62,3.15,7.1c0.72,2.47,0.95,5.07,0.63,7.6c-0.68,5.1-3.49,9.68-6.97,13.53
		l-0.01,0.02c-0.11,0.13-0.21,0.27-0.3,0.44c-0.5,1-0.1,2.21,0.89,2.71s2.21,0.1,2.71-0.89c1.25-2.47,2.5-4.94,3.49-7.54
		c1.01-2.58,1.75-5.3,1.97-8.08c0.26-2.78-0.06-5.59-0.82-8.24c-0.76-2.66-1.96-5.14-3.34-7.48c-1.17-1.97-2.43-3.81-3.65-5.68
		c0.58-1.28,1.1-2.58,1.57-3.9c0.67,0.78,1.33,1.57,1.97,2.37c3.09,3.81,5.86,7.92,7.57,12.39c0.85,2.23,1.38,4.54,1.52,6.85
		c0.14,2.31-0.14,4.61-0.8,6.79c-0.03,0.09-0.05,0.19-0.06,0.28c-0.17,1.1,0.59,2.12,1.68,2.28c1.1,0.17,2.12-0.59,2.28-1.68l0-0.01
		C318.54,206.26,318.51,203.55,318.11,200.93z M296.1,156.84c1.05,0.01,2.11,0.49,3.05,1.2c0.91,0.76,1.76,1.69,2.41,2.72
		c1.38,2.03,1.98,4.51,2.08,7c0.1,2.51-0.3,5.06-0.98,7.53c-0.02,0.09-0.06,0.18-0.08,0.27l-0.21-0.25
		c-1.6-1.89-3.17-3.73-4.37-5.85c-1.25-2.09-2.38-4.27-3.07-6.54c-0.37-1.13-0.57-2.3-0.58-3.42c-0.01-0.57,0.09-1.11,0.22-1.62
		c0.09-0.24,0.17-0.48,0.29-0.7c0.03-0.05,0.06-0.1,0.09-0.16C295.32,156.91,295.7,156.83,296.1,156.84z M300.66,180.86
		c-1.08-1.7-2.14-3.41-3.11-5.17c-1.29-2.31-2.49-4.67-3.47-7.09l-0.69-1.83c-0.19-0.62-0.4-1.23-0.58-1.86
		c-0.14-0.63-0.34-1.25-0.42-1.87c-0.1-0.63-0.22-1.27-0.21-1.81c-0.01-0.83,0.23-1.64,0.64-2.35c-0.01,0.21-0.04,0.41-0.03,0.62
		c0.02,1.35,0.25,2.66,0.66,3.88c0.76,2.47,1.94,4.73,3.23,6.89c1.25,2.21,2.88,4.19,4.48,6.09c0.29,0.34,0.58,0.68,0.87,1.01
		C301.61,178.55,301.16,179.71,300.66,180.86z"/>
	<g>
		<circle class="st15" cx="293.74" cy="144.28" r="4.22"/>
	</g>
	<g>
		<g>
			<path class="st15" d="M115.62,118.93c-1.39-2.12-2.79-3.83-4.19-5.11c-1.4-1.28-2.69-2.24-3.86-2.88
				c-1.17-0.64-2.19-0.95-3.06-0.96c-0.87,0-1.46,0.22-1.79,0.66l-0.44-0.33l7.12-9.65l0.44,0.33c-0.33,0.44-0.42,1.18-0.3,2.21
				s0.48,2.29,1.04,3.78c0.57,1.49,1.36,3.17,2.39,5.05c1.03,1.88,2.27,3.9,3.73,6.06l6.69,9.92l-4.44,6.02l-11.91-3.59
				c-3.57-1.09-6.47-1.84-8.7-2.25c-2.23-0.41-3.97-0.62-5.25-0.62c-1.27,0-2.17,0.14-2.71,0.43c-0.53,0.29-0.91,0.58-1.13,0.88
				l-0.44-0.33l9.37-12.7l0.44,0.33c-0.22,0.3-0.34,0.67-0.36,1.14c-0.02,0.46,0.36,1.02,1.16,1.67s2.14,1.41,4.04,2.26
				c1.9,0.85,4.65,1.81,8.24,2.87l9.14,2.71L115.62,118.93z"/>
		</g>
		<g>
			<path class="st15" d="M124.16,123.76c0.42-0.35,0.71-1.04,0.87-2.06c0.15-1.03,0.14-2.33-0.05-3.91
				c-0.19-1.58-0.53-3.41-1.03-5.49c-0.5-2.08-1.19-4.35-2.07-6.81l-4.02-11.29l5.78-4.75l10.59,6.46c3.17,1.95,5.78,3.39,7.83,4.32
				c2.05,0.93,3.68,1.54,4.9,1.84c1.22,0.3,2.12,0.38,2.71,0.23c0.59-0.15,1.02-0.34,1.31-0.58l0.42,0.51l-12.15,9.99l-0.42-0.51
				c0.25-0.21,0.45-0.48,0.59-0.8c0.13-0.32,0.06-0.78-0.22-1.35c-0.28-0.57-0.86-1.29-1.73-2.14c-0.87-0.85-2.2-1.91-4.01-3.18
				l-7.69,6.32c0.76,1.27,1.53,2.33,2.29,3.17c0.76,0.84,1.5,1.48,2.22,1.92c0.71,0.43,1.35,0.68,1.9,0.75
				c0.55,0.07,1-0.04,1.34-0.32l0.42,0.51l-9.3,7.65L124.16,123.76z M132.24,103.37c-0.59-0.37-1.22-0.76-1.9-1.18
				c-0.68-0.42-1.39-0.86-2.16-1.32l-8.27-4.95l3.22,9.03c0.59,1.7,1.22,3.15,1.88,4.36L132.24,103.37z"/>
		</g>
		<g>
			<path class="st15" d="M149.78,104.2l-0.22-0.51l0.15-0.06c0.57-0.24,0.66-1.31,0.25-3.19c-0.41-1.88-1.3-4.44-2.68-7.68
				l-1.77-4.15c-1.38-3.24-2.62-5.65-3.69-7.24c-1.08-1.59-1.91-2.27-2.48-2.02l-0.15,0.06l-0.22-0.51l10.62-4.54l0.22,0.51
				l-0.15,0.06c-0.57,0.25-0.66,1.31-0.25,3.19c0.41,1.88,1.3,4.44,2.68,7.68l5.79,13.55c2.16-0.92,3.84-1.94,5.04-3.05
				c1.2-1.11,2.11-2.19,2.72-3.23s0.99-1.97,1.14-2.79c0.15-0.82,0.26-1.43,0.33-1.82l0.51-0.22l3,7.03L149.78,104.2z"/>
		</g>
		<g>
			<path class="st15" d="M194.22,80.26c0.48,3.49,1.03,6.14,1.66,7.96c0.62,1.82,1.24,2.69,1.86,2.6l0.11-0.02l0.08,0.54
				l-11.39,1.57l-0.08-0.54l0.16-0.02c0.62-0.08,0.98-1.09,1.08-3.01c0.1-1.92-0.08-4.62-0.57-8.11l-0.24-1.74l-9.81,1.35l0.24,1.74
				c0.48,3.49,1.03,6.14,1.66,7.96c0.62,1.82,1.24,2.69,1.86,2.6l0.11-0.02l0.08,0.55l-11.39,1.57l-0.08-0.54l0.16-0.02
				c0.62-0.09,0.98-1.09,1.08-3.01c0.1-1.92-0.08-4.62-0.57-8.11l-0.62-4.47c-0.48-3.49-1.03-6.14-1.66-7.96
				c-0.62-1.82-1.24-2.69-1.86-2.6l-0.16,0.02l-0.08-0.55l11.44-1.58l0.08,0.54l-0.16,0.02c-0.62,0.09-0.98,1.09-1.08,3.01
				c-0.11,1.92,0.08,4.62,0.57,8.11l0.18,1.31l9.81-1.36l-0.18-1.31c-0.48-3.49-1.03-6.14-1.66-7.96c-0.62-1.82-1.24-2.69-1.86-2.6
				l-0.16,0.02l-0.08-0.54l11.44-1.58l0.08,0.54l-0.16,0.02c-0.62,0.09-0.98,1.09-1.08,3.01c-0.11,1.92,0.08,4.62,0.57,8.11
				L194.22,80.26z"/>
		</g>
		<g>
			<path class="st15" d="M195.59,90.14c0.54,0.09,1.25-0.15,2.12-0.71c0.87-0.56,1.84-1.43,2.91-2.62c1.07-1.18,2.22-2.65,3.45-4.39
				c1.24-1.75,2.49-3.76,3.75-6.04l5.84-10.47l7.38,1.21l2.12,12.22c0.62,3.67,1.26,6.58,1.91,8.73c0.65,2.15,1.26,3.78,1.84,4.9
				c0.58,1.12,1.12,1.85,1.62,2.19c0.5,0.34,0.93,0.54,1.29,0.6l-0.11,0.65l-15.52-2.55l0.11-0.65c0.33,0.05,0.66,0.02,0.99-0.09
				c0.33-0.11,0.62-0.46,0.87-1.06c0.25-0.59,0.4-1.5,0.47-2.71c0.07-1.22-0.01-2.92-0.25-5.11l-9.82-1.61
				c-0.46,1.41-0.75,2.68-0.88,3.81c-0.13,1.13-0.12,2.11,0.02,2.93c0.14,0.82,0.37,1.46,0.69,1.92c0.31,0.46,0.69,0.73,1.12,0.8
				l-0.11,0.65l-11.89-1.95L195.59,90.14z M216.25,82.77c-0.11-0.69-0.23-1.42-0.36-2.21c-0.13-0.78-0.27-1.61-0.43-2.49l-1.73-9.48
				l-4.66,8.38c-0.89,1.56-1.57,2.99-2.04,4.29L216.25,82.77z"/>
		</g>
		<g>
			<path class="st15" d="M227.31,96.48l0.23-0.5l0.15,0.07c0.57,0.26,1.41-0.39,2.53-1.95c1.12-1.56,2.42-3.94,3.89-7.14l1.88-4.1
				c1.47-3.2,2.43-5.73,2.89-7.6c0.46-1.87,0.4-2.93-0.17-3.19L238.56,72l0.23-0.5l10.5,4.82l-0.23,0.5l-0.15-0.07
				c-0.57-0.26-1.41,0.39-2.53,1.95c-1.12,1.56-2.42,3.94-3.89,7.14l-6.15,13.39c2.13,0.98,4.01,1.54,5.64,1.68
				c1.63,0.14,3.03,0.09,4.22-0.15c1.18-0.24,2.12-0.59,2.83-1.03c0.71-0.44,1.23-0.77,1.57-0.97l0.5,0.23l-3.19,6.95L227.31,96.48z
				"/>
		</g>
		<g>
			<path class="st15" d="M247.17,105.53l0.35-0.43l0.13,0.1c0.48,0.39,1.46-0.03,2.94-1.27c1.47-1.24,3.32-3.22,5.53-5.96l2.84-3.51
				c2.21-2.74,3.77-4.95,4.68-6.65c0.9-1.7,1.11-2.74,0.63-3.14l-0.13-0.1l0.35-0.43l8.98,7.27l-0.35,0.43l-0.13-0.1
				c-0.48-0.39-1.46,0.03-2.94,1.27c-1.47,1.24-3.32,3.22-5.53,5.96l-9.28,11.46c1.82,1.48,3.51,2.49,5.05,3.03
				c1.54,0.54,2.92,0.84,4.12,0.9c1.21,0.06,2.21-0.04,3-0.3c0.79-0.25,1.38-0.44,1.76-0.56l0.43,0.35l-4.81,5.94L247.17,105.53z"/>
		</g>
		<g>
			<path class="st15" d="M263.86,116.66c0.31,0.46,0.97,0.81,1.97,1.06c1.01,0.25,2.31,0.35,3.9,0.32c1.59-0.04,3.45-0.21,5.56-0.51
				c2.12-0.3,4.44-0.78,6.97-1.42l11.62-2.94l4.19,6.2l-7.43,9.93c-2.24,2.97-3.92,5.44-5.03,7.39c-1.12,1.95-1.88,3.52-2.3,4.71
				c-0.42,1.19-0.57,2.08-0.48,2.68c0.1,0.6,0.25,1.05,0.45,1.35l-0.55,0.37l-8.81-13.03l0.55-0.37c0.18,0.27,0.43,0.49,0.74,0.66
				c0.31,0.17,0.77,0.14,1.37-0.09c0.6-0.23,1.36-0.73,2.29-1.52c0.93-0.79,2.11-2.01,3.55-3.69l-5.58-8.25
				c-1.34,0.64-2.46,1.3-3.37,1.98c-0.91,0.68-1.62,1.36-2.12,2.03c-0.5,0.67-0.81,1.28-0.93,1.82c-0.12,0.55-0.05,1,0.19,1.36
				l-0.55,0.37l-6.75-9.98L263.86,116.66z M283.41,126.62c0.42-0.55,0.87-1.15,1.35-1.78c0.48-0.63,0.99-1.31,1.52-2.02l5.7-7.77
				l-9.29,2.36c-1.75,0.43-3.25,0.92-4.52,1.46L283.41,126.62z"/>
		</g>
	</g>
	<g>
		<circle class="st15" cx="196.02" cy="314.06" r="2.95"/>
	</g>
	<g>
		<path class="st4" d="M64.11,221.09c-2.5-10.04-3.85-20.35-4.01-30.67c-0.09-10.32,0.81-20.65,2.95-30.74
			c2.15-10.08,5.44-19.92,9.78-29.26c1.02-2.37,2.29-4.61,3.45-6.91c1.2-2.28,2.55-4.47,3.83-6.7c1.42-2.15,2.74-4.36,4.24-6.45
			c1.51-2.08,2.95-4.22,4.59-6.2l2.4-3.03l2.53-2.91c1.65-1.97,3.47-3.8,5.25-5.66c0.87-0.94,1.81-1.83,2.74-2.71l2.79-2.66
			c1.93-1.7,3.86-3.4,5.85-5.03c8-6.47,16.71-12.04,25.93-16.59c18.47-9.06,39.04-13.71,59.58-13.73
			c20.55,0.02,41.11,4.66,59.58,13.73c9.22,4.54,17.94,10.12,25.93,16.59c1.99,1.63,3.92,3.33,5.85,5.03l2.8,2.66
			c0.94,0.88,1.87,1.77,2.74,2.71c1.78,1.86,3.59,3.68,5.25,5.66l2.53,2.91l2.4,3.02c1.64,1.98,3.08,4.12,4.59,6.2
			c1.5,2.09,2.82,4.3,4.24,6.45c1.28,2.23,2.63,4.43,3.83,6.7c1.16,2.3,2.43,4.54,3.45,6.91c4.34,9.34,7.63,19.17,9.78,29.26
			c2.15,10.09,3.05,20.42,2.95,30.74c-0.16,10.32-1.51,20.63-4.01,30.67c-0.27,1.07-1.35,1.72-2.42,1.46
			c-1.07-0.27-1.72-1.35-1.46-2.42c0,0,0.01-0.02,0.01-0.03c2.55-9.7,4-19.71,4.29-29.76c0.22-10.05-0.52-20.14-2.49-30.01
			c-2.01-9.86-5.16-19.49-9.34-28.66c-0.98-2.32-2.21-4.53-3.32-6.78c-1.16-2.24-2.47-4.39-3.7-6.59c-1.38-2.11-2.65-4.29-4.11-6.35
			c-1.47-2.05-2.86-4.15-4.45-6.11c-6.17-7.97-13.19-15.31-21.03-21.67c-7.83-6.36-16.37-11.86-25.41-16.34
			c-18.11-8.94-38.29-13.56-58.48-13.62c-20.2,0.07-40.38,4.68-58.48,13.62c-9.04,4.48-17.58,9.97-25.41,16.34
			c-7.84,6.36-14.86,13.7-21.03,21.67c-1.59,1.95-2.99,4.06-4.45,6.11c-1.45,2.06-2.73,4.24-4.11,6.35c-1.23,2.2-2.54,4.35-3.7,6.59
			c-1.11,2.26-2.35,4.46-3.32,6.78c-4.18,9.17-7.32,18.8-9.34,28.66c-1.97,9.88-2.71,19.97-2.49,30.01
			c0.29,10.05,1.74,20.05,4.29,29.76c0.28,1.07-0.35,2.16-1.42,2.44c-1.07,0.28-2.16-0.35-2.44-1.42
			C64.12,221.11,64.11,221.09,64.11,221.09z"/>
	</g>
	<g>
		<path class="st4" d="M286.43,289.02c-6.23,5.39-12.94,10.21-20.03,14.39c-7.06,4.21-14.5,7.78-22.2,10.64
			c-15.38,5.75-31.78,8.72-48.19,8.68c-16.41,0.05-32.81-2.93-48.19-8.68c-7.7-2.86-15.13-6.43-22.19-10.64
			c-7.08-4.17-13.79-9-20.02-14.39c-0.84-0.72-0.93-1.99-0.2-2.82s1.99-0.93,2.82-0.2c0.01,0.01,0.03,0.03,0.04,0.03
			c5.91,5.39,12.32,10.25,19.12,14.5c6.82,4.21,14.03,7.8,21.51,10.71c14.97,5.81,31.04,8.72,47.12,8.78
			c16.07-0.06,32.15-2.97,47.12-8.78c7.48-2.91,14.7-6.49,21.52-10.7c6.8-4.25,13.21-9.11,19.12-14.49
			c0.82-0.74,2.08-0.69,2.83,0.13c0.74,0.82,0.69,2.08-0.13,2.83C286.46,288.99,286.44,289.01,286.43,289.02z"/>
	</g>
	<g>
		<path class="st17" d="M265.64,310.92c-10.16,6.68-21.45,11.73-33.24,15.11c-5.89,1.73-11.92,2.94-18,3.82
			c-6.09,0.84-12.23,1.24-18.38,1.28c-6.15-0.04-12.29-0.44-18.38-1.28c-6.08-0.89-12.11-2.09-18-3.82
			c-11.79-3.38-23.08-8.43-33.23-15.12c10.97,5.23,22.34,9.35,34.02,12.1c5.85,1.34,11.74,2.44,17.69,3.09
			c5.94,0.7,11.92,1.06,17.9,1.04c5.98,0.03,11.96-0.34,17.9-1.03c5.95-0.65,11.84-1.75,17.69-3.09
			C243.3,320.28,254.67,316.15,265.64,310.92z"/>
	</g>
	<g>
		<path class="st17" d="M126.41,63.46c10.16-6.68,21.45-11.74,33.24-15.11c5.89-1.73,11.92-2.94,18-3.82
			c6.09-0.84,12.23-1.24,18.38-1.28c6.15,0.04,12.29,0.44,18.38,1.28c6.08,0.89,12.11,2.09,18,3.82
			c11.79,3.38,23.08,8.43,33.23,15.12c-10.97-5.23-22.34-9.35-34.02-12.1c-5.85-1.34-11.74-2.44-17.69-3.09
			c-5.94-0.7-11.92-1.06-17.9-1.04c-5.98-0.03-11.96,0.34-17.9,1.03c-5.95,0.65-11.84,1.75-17.69,3.09
			C148.75,54.1,137.38,58.23,126.41,63.46z"/>
	</g>
	<g>
		<path class="st4" d="M307.58,277.18c-0.29-0.76-0.82-1.47-1.57-1.95c-0.74-0.5-1.71-0.72-2.57-0.64l-0.46,0.04
			c-0.21,0.02-0.43,0.07-0.63,0.16c-0.99,0.44-1.43,1.6-0.98,2.59s1.6,1.43,2.59,0.98c0.11-0.05,0.17-0.1,0.27-0.09
			c0.09,0.01,0.23,0.1,0.33,0.23c0.1,0.15,0.15,0.23,0.14,0.56c0,0.28-0.09,0.6-0.22,0.93c-0.59,1.35-2.05,2.6-3.59,3.42
			c-0.78,0.4-1.62,0.72-2.41,0.84c-0.19,0.01-0.4,0.07-0.56,0.04l-0.26-0.01l-0.32-0.06l-0.63-0.11l-0.59-0.18
			c-0.76-0.28-1.38-0.7-1.76-1.31c-0.39-0.6-0.56-1.39-0.57-2.24c-0.02-1.71,0.53-3.56,1.2-5.31c0.68-1.77,1.53-3.49,2.45-5.19
			c0.92-1.7,1.93-3.36,2.97-5c1.03-1.65,2.16-3.24,3.14-5.1c1.85-3.66,2.8-7.94,1.94-12.12c-0.43-2.07-1.33-4.08-2.65-5.74
			c-1.31-1.68-2.97-3.03-4.76-4.09c-1.76-1.06-3.88-1.78-6-2c-2.16-0.22-4.3,0.22-6.27,0.91c-1.97,0.72-3.8,1.74-5.45,2.96
			c-1.66,1.21-3.17,2.58-4.55,4.1c-0.18,0.21-0.33,0.37-0.54,0.63l-0.45,0.58l-0.9,1.15l-1.79,2.31c-1.23,1.51-2.54,2.93-3.8,4.4
			c-1.32,1.41-2.7,2.77-4.05,4.17c-1.41,1.32-2.86,2.61-4.29,3.92c-5.87,5.05-12.35,9.39-19.24,12.9
			c-13.76,7.09-29.22,10.78-44.68,10.75c-15.47,0.05-30.93-3.63-44.71-10.71c-6.9-3.51-13.39-7.84-19.27-12.89
			c-1.43-1.31-2.88-2.59-4.3-3.92c-1.35-1.39-2.73-2.75-4.06-4.16c-1.27-1.47-2.58-2.9-3.81-4.4l-1.79-2.31l-0.9-1.15l-0.45-0.58
			c-0.21-0.26-0.36-0.42-0.54-0.62c-1.38-1.52-2.89-2.88-4.54-4.09c-1.65-1.21-3.46-2.23-5.42-2.94c-1.96-0.69-4.09-1.12-6.22-0.9
			c-2.11,0.23-4.2,0.93-5.95,1.99c-1.78,1.05-3.43,2.39-4.72,4.06c-1.31,1.65-2.2,3.64-2.62,5.69c-0.86,4.15,0.1,8.4,1.93,12.03
			c0.43,0.81,0.89,1.57,1.36,2.31c0.01,0.04,0.02,0.08,0.04,0.12c0.06,0.17,0.17,0.31,0.31,0.42c0.48,0.75,0.97,1.49,1.44,2.24
			c1.04,1.65,2.05,3.31,2.98,5.01c0.92,1.7,1.78,3.43,2.47,5.21c0.67,1.76,1.23,3.62,1.21,5.37c0.3,3.67-4.33,5.16-7.34,3.18
			c-1.56-0.82-3.04-2.09-3.66-3.5c-0.3-0.68-0.32-1.4-0.09-1.63c0.11-0.16,0.28-0.27,0.4-0.28c0.13-0.02,0.22,0.03,0.35,0.09
			c0.18,0.08,0.39,0.13,0.6,0.15c1.01,0.08,1.89-0.68,1.96-1.69c0.08-1.01-0.68-1.89-1.69-1.96l-0.4-0.03
			c-0.84-0.06-1.77,0.15-2.48,0.64c-0.72,0.48-1.22,1.16-1.5,1.9c-0.14,0.37-0.22,0.76-0.25,1.16c-0.03,0.43,0.05,0.73,0.1,1.08
			c0.14,0.67,0.39,1.26,0.69,1.79c1.3,2.06,3.13,3.24,5.05,4.15c0.97,0.44,2,0.78,3.13,0.89c0.29,0.02,0.56,0.06,0.88,0.03
			l0.46-0.03l0.4-0.07c0.27-0.05,0.53-0.1,0.8-0.16l0.8-0.26c1.04-0.4,2.09-1.11,2.74-2.14c0.65-1.02,0.87-2.2,0.89-3.28
			c0.02-1.09-0.15-2.14-0.4-3.14c-0.24-1.01-0.56-1.98-0.93-2.92c-0.72-1.89-1.61-3.68-2.56-5.43c-0.95-1.75-1.97-3.45-3.03-5.12
			c-0.47-0.76-0.96-1.5-1.43-2.24c0-0.02,0-0.03-0.01-0.05l-0.01-0.04c-0.4-1.21-0.7-2.54-0.84-3.8c-0.13-1.25-0.07-2.58,0.41-3.36
			c0.21-0.33,0.64-0.71,1.04-0.84c0.4-0.15,0.85-0.15,1.35-0.01c1.02,0.29,1.96,1.04,2.62,2l2.43,3.38c0.84,1.11,1.58,2.3,2.49,3.36
			l2.64,3.24l1.33,1.62l1.41,1.54c7.49,8.27,16.11,15.52,25.55,21.49c18.96,11.84,41.29,18.18,63.66,18.23
			c22.37-0.06,44.7-6.39,63.66-18.23c9.44-5.97,18.06-13.22,25.55-21.49l1.41-1.54l1.33-1.62l2.64-3.24
			c0.91-1.06,1.66-2.24,2.49-3.36l2.43-3.38c0.66-0.96,1.6-1.71,2.62-2c0.5-0.14,0.95-0.14,1.35,0.01c0.4,0.13,0.83,0.51,1.04,0.84
			c0.48,0.79,0.54,2.11,0.41,3.36c-0.12,1.13-0.38,2.3-0.72,3.4c-0.55,0.87-1.14,1.75-1.69,2.65c-1.05,1.67-2.08,3.37-3.03,5.13
			c-0.95,1.75-1.84,3.55-2.57,5.45c-0.37,0.95-0.69,1.92-0.93,2.94c-0.25,1.01-0.42,2.07-0.4,3.18c0.02,1.1,0.24,2.31,0.91,3.37
			c0.67,1.06,1.74,1.81,2.81,2.21l0.81,0.27c0.27,0.07,0.54,0.11,0.81,0.16l0.41,0.08l0.47,0.03c0.32,0.03,0.6-0.01,0.9-0.03
			c1.16-0.12,2.2-0.47,3.18-0.91c0.98-0.45,1.92-0.99,2.79-1.67c0.86-0.69,1.7-1.48,2.33-2.56c0.31-0.55,0.57-1.15,0.71-1.84
			c0.05-0.36,0.13-0.67,0.1-1.12C307.81,277.97,307.72,277.57,307.58,277.18z M286.85,262.84c-2.71,1.87-5.61,3.53-8.56,5.01
			c-2.91,1.46-5.94,2.67-9.01,3.68c-0.21-2.6-0.19-5.25,0.26-7.87c0.33-2.12,0.83-4.22,1.47-6.28c0.06,0.53,0.14,1.07,0.28,1.6
			c0.38,1.52,1.3,3.06,2.74,3.89c0.7,0.42,1.47,0.68,2.24,0.85c0.78,0.13,1.53,0.22,2.29,0.25c3.05,0.16,6.09-0.65,8.81-1.98
			c0.12-0.06,0.24-0.13,0.36-0.19L286.85,262.84z M253.65,285.49c-0.07,0.97-0.11,1.95-0.1,2.94c0.01,0.49,0.03,0.99,0.08,1.49
			c0.01,0.09,0.02,0.17,0.02,0.25c-3.95,2.18-8.02,4.14-12.18,5.86c0.01-0.07,0.01-0.12,0.02-0.19c0.12-0.82,0.33-1.66,0.58-2.5
			c0.5-1.68,1.17-3.35,1.89-5.01c1.46-3.3,3.27-6.42,5.27-9.49c0.43-0.66,0.89-1.31,1.34-1.97c0.44,0.03,0.88,0.06,1.32,0.09
			c1.07-0.02,2.14-0.04,3.2-0.09c0.07,0,0.13-0.01,0.2-0.02c-0.27,0.96-0.53,1.93-0.75,2.9
			C254.11,281.64,253.78,283.55,253.65,285.49z M248.92,274.1l-1.51-0.07l-0.87-0.13c2.74-1.62,5.41-3.36,7.98-5.22
			c-0.06,0.08-0.13,0.15-0.2,0.23c-1.43,1.73-2.82,3.49-4.19,5.28C249.73,274.15,249.32,274.12,248.92,274.1z M254.95,274.22
			c-0.87,0.01-1.75,0.04-2.62,0.06c1.05-1.48,2.13-2.95,3.23-4.4c1.31-1.72,2.65-3.43,4-5.12c0.56-0.46,1.11-0.94,1.67-1.42
			c-1.09,1.81-2.11,3.66-2.99,5.58c-0.78,1.7-1.48,3.44-2.09,5.21C255.74,274.16,255.35,274.2,254.95,274.22z M259.31,269.42
			c1.6-3.37,3.52-6.61,5.78-9.59c0.05-0.07,0.1-0.13,0.16-0.2c0.27-0.25,0.54-0.5,0.8-0.75c1.23-1.29,2.48-2.57,3.7-3.87
			c-1.08,2.66-1.93,5.41-2.5,8.25c-0.64,2.96-0.78,6.03-0.62,9.08c-3,0.88-6.08,1.41-9.17,1.69
			C257.99,272.46,258.6,270.92,259.31,269.42z M286.74,260.78c-2.47,1.4-5.31,2.12-8.14,2.04c-1.43-0.02-2.82-0.25-3.94-0.96
			c-1.12-0.68-1.84-1.86-2.12-3.18c-0.5-2.53,0.09-5.34,1.06-7.78c0.15-0.31,0.31-0.62,0.47-0.93l1.63-2.14
			c-0.85,2.53-1.08,5.08-0.64,7.29c0.76,3.78,3.38,6.04,7.02,6.05c0.01,0,0.03,0,0.04,0c2.06,0,3.95-0.4,5.65-1.01
			C287.43,260.38,287.09,260.58,286.74,260.78z M242.03,276.41c0.42-0.22,0.84-0.46,1.26-0.68c0.74,0.18,1.48,0.35,2.22,0.52
			l1.57,0.33l1.18,0.12c-0.24,0.34-0.5,0.66-0.74,1c-2.16,3.01-4.2,6.19-5.87,9.57c-0.83,1.69-1.6,3.41-2.24,5.24
			c-0.31,0.91-0.6,1.85-0.79,2.85c-0.1,0.5-0.17,1.02-0.21,1.56c0,0.11-0.01,0.23-0.01,0.34c-2.72,1.04-5.47,1.98-8.25,2.81
			c-2.87,0.34-5.84,0.48-8.76,0.34c-3.39-0.15-6.79-0.61-10.02-1.59c-1.62-0.47-3.2-1.08-4.69-1.85c-1.49-0.77-2.93-1.64-4.16-2.77
			c-1.24-1.11-2.34-2.37-3.2-3.78c-0.53-0.89-0.96-1.84-1.3-2.81c0.13,0,0.27,0,0.4-0.01c1.31,1.48,2.76,2.85,4.34,4.06
			c1.98,1.48,4.17,2.71,6.51,3.6c4.68,1.81,9.9,2.05,14.81,1c2.45-0.57,4.83-1.44,7.04-2.72c1.1-0.64,2.17-1.38,3.14-2.29
			c0.95-0.93,1.93-1.97,2.31-3.68c0.03-0.23,0.05-0.46,0.07-0.68c0-0.2-0.02-0.39-0.04-0.59c-0.05-0.39-0.13-0.79-0.28-1.18
			c-0.28-0.77-0.79-1.45-1.37-1.96c-1.17-1.01-2.5-1.46-3.76-1.76c-0.1-0.02-0.19-0.03-0.29-0.05
			C234.7,279.94,238.42,278.29,242.03,276.41z M196.02,297.66c-0.01,0.02-2.77,4.82-7.84,7.17c-5.64-0.37-11.24-1.15-16.77-2.32
			c3.31-0.34,6.61-0.95,9.8-1.99c3.38-1.08,6.62-2.78,9.34-5.15c1.35-1.2,2.52-2.59,3.55-4.08c0.75-1.15,1.36-2.38,1.9-3.65
			c0.01,0,0.01,0,0.02,0s0.01,0,0.02,0c0.53,1.27,1.15,2.49,1.9,3.65c1.03,1.49,2.2,2.88,3.55,4.08c2.72,2.37,5.96,4.07,9.34,5.15
			c3.19,1.04,6.48,1.65,9.8,1.99c-5.52,1.17-11.13,1.94-16.77,2.32C198.8,302.48,196.04,297.68,196.02,297.66z M213.66,289.46
			c0.6,0.82,1.44,1.29,2.22,1.62c0.8,0.33,1.64,0.5,2.46,0.56c0.82,0.07,1.63,0.04,2.42-0.06c0.81-0.1,1.53-0.23,2.39-0.5
			c0.06-0.02,0.11-0.04,0.17-0.06c0.81-0.36,1.17-1.3,0.82-2.1c-0.36-0.81-1.3-1.17-2.1-0.82l-0.04,0.02
			c-1.04,0.46-2.39,0.8-3.57,0.84c-0.61,0.03-1.19-0.03-1.73-0.18c-0.55-0.16-1.02-0.38-1.31-0.68c-0.29-0.3-0.43-0.67-0.39-1.12
			c0.04-0.43,0.29-0.9,0.67-1.3c3.35-0.67,6.66-1.5,9.92-2.51c1.72,0.02,3.45,0.18,5.02,0.6c1.04,0.27,2.03,0.69,2.65,1.28
			c0.31,0.29,0.52,0.61,0.64,0.96c0.07,0.17,0.09,0.37,0.12,0.57l0.01,0.3c-0.02,0.07-0.03,0.14-0.03,0.21
			c-0.15,0.64-0.8,1.52-1.56,2.22c-0.77,0.72-1.69,1.36-2.65,1.92c-1.93,1.13-4.09,1.9-6.29,2.43c-2.21,0.52-4.49,0.77-6.76,0.69
			c-2.27-0.09-4.52-0.52-6.7-1.21c-3.51-1.13-6.72-3.13-9.55-5.6c4.29-0.2,8.56-0.66,12.79-1.41c-0.06,0.15-0.12,0.29-0.16,0.45
			C212.83,287.52,213.05,288.66,213.66,289.46z M166.57,283.16c3.22,0.99,6.49,1.82,9.79,2.48c0.39,0.41,0.65,0.89,0.69,1.33
			c0.05,0.45-0.09,0.82-0.39,1.12c-0.29,0.3-0.76,0.53-1.31,0.68c-0.54,0.15-1.13,0.21-1.73,0.18c-1.18-0.05-2.53-0.38-3.57-0.84
			l-0.04-0.02c-0.05-0.02-0.11-0.04-0.17-0.06c-0.84-0.26-1.74,0.21-2,1.05c-0.26,0.84,0.21,1.74,1.05,2
			c0.86,0.27,1.58,0.4,2.39,0.5c0.79,0.09,1.6,0.12,2.42,0.06c0.82-0.06,1.66-0.24,2.46-0.56c0.78-0.32,1.61-0.8,2.22-1.62
			c0.61-0.8,0.83-1.94,0.58-2.88c-0.04-0.17-0.11-0.32-0.17-0.47c4.23,0.75,8.51,1.22,12.8,1.42c-2.84,2.48-6.04,4.48-9.56,5.61
			c-2.17,0.69-4.42,1.12-6.7,1.21c-2.27,0.08-4.55-0.17-6.76-0.69c-2.2-0.53-4.36-1.31-6.29-2.43c-0.96-0.56-1.88-1.19-2.65-1.92
			c-0.76-0.7-1.41-1.58-1.56-2.22c0-0.07-0.02-0.14-0.03-0.21l0.01-0.3c0.02-0.2,0.05-0.39,0.12-0.57c0.12-0.35,0.33-0.67,0.64-0.96
			c0.62-0.59,1.6-1.01,2.65-1.28C163.05,283.32,164.82,283.17,166.57,283.16z M161.23,281.34c-0.12,0.02-0.24,0.04-0.36,0.07
			c-1.26,0.3-2.59,0.75-3.76,1.76c-0.58,0.5-1.08,1.19-1.37,1.96c-0.15,0.38-0.23,0.78-0.28,1.18c-0.01,0.2-0.03,0.39-0.04,0.59
			c0.02,0.23,0.04,0.46,0.07,0.68c0.38,1.71,1.36,2.75,2.31,3.68c0.97,0.91,2.04,1.64,3.14,2.29c2.21,1.28,4.59,2.15,7.04,2.72
			c4.9,1.05,10.12,0.81,14.81-1c2.34-0.89,4.53-2.11,6.51-3.6c1.58-1.22,3.04-2.58,4.34-4.07c0.13,0,0.27,0,0.4,0.01
			c-0.35,0.97-0.77,1.92-1.3,2.81c-0.86,1.42-1.96,2.67-3.2,3.78c-1.23,1.12-2.68,2-4.16,2.77c-1.49,0.76-3.07,1.37-4.69,1.85
			c-3.23,0.98-6.63,1.43-10.02,1.59c-2.92,0.14-5.9,0-8.76-0.34c-2.78-0.84-5.54-1.77-8.25-2.81c0-0.11-0.01-0.23-0.01-0.34
			c-0.04-0.55-0.11-1.07-0.21-1.56c-0.19-1-0.47-1.94-0.79-2.85c-0.63-1.82-1.41-3.55-2.24-5.24c-1.67-3.37-3.71-6.56-5.87-9.57
			c-0.24-0.34-0.5-0.66-0.74-1l1.18-0.12l1.57-0.33c0.77-0.17,1.54-0.36,2.3-0.54c0.4,0.22,0.8,0.44,1.21,0.66
			C153.66,278.26,157.4,279.91,161.23,281.34z M138.4,285.49c-0.14-1.94-0.46-3.85-0.89-5.72c-0.22-0.98-0.47-1.94-0.75-2.9
			c0.07,0,0.13,0.01,0.2,0.02c1.07,0.05,2.13,0.07,3.2,0.09c0.44-0.02,0.88-0.05,1.32-0.09c0.44,0.66,0.91,1.3,1.34,1.97
			c2,3.07,3.81,6.19,5.27,9.49c0.72,1.65,1.39,3.33,1.89,5.01c0.25,0.84,0.46,1.68,0.58,2.5c0.01,0.07,0.01,0.13,0.02,0.19
			c-4.16-1.73-8.23-3.68-12.18-5.86c0.01-0.08,0.02-0.17,0.02-0.25c0.05-0.5,0.06-1,0.08-1.49
			C138.51,287.44,138.47,286.46,138.4,285.49z M105.19,262.84l-0.89-1.05c0.12,0.06,0.24,0.13,0.36,0.19
			c2.72,1.33,5.76,2.14,8.81,1.98c0.76-0.02,1.51-0.12,2.29-0.25c0.77-0.17,1.53-0.43,2.24-0.85c1.44-0.82,2.36-2.36,2.74-3.89
			c0.14-0.53,0.22-1.06,0.28-1.6c0.65,2.06,1.14,4.16,1.47,6.28c0.45,2.62,0.46,5.27,0.26,7.87c-3.08-1.01-6.1-2.22-9.01-3.68
			C110.8,266.37,107.9,264.71,105.19,262.84z M124.79,263.27c-0.59-2.91-1.46-5.74-2.59-8.46c1.26,1.36,2.56,2.68,3.84,4.03
			c0.15,0.14,0.3,0.27,0.44,0.41c0.15,0.2,0.31,0.39,0.46,0.59c2.27,2.98,4.18,6.22,5.78,9.59c0.71,1.49,1.32,3.04,1.85,4.61
			c-3.09-0.28-6.17-0.81-9.17-1.69C125.57,269.29,125.43,266.22,124.79,263.27z M133.81,268.92c-0.92-1.99-1.98-3.91-3.12-5.78
			c0.51,0.44,1.02,0.88,1.54,1.31c1.44,1.79,2.87,3.6,4.26,5.43c1.1,1.45,2.18,2.92,3.23,4.4c-0.87-0.03-1.75-0.06-2.62-0.06
			c-0.4-0.02-0.8-0.06-1.19-0.09C135.29,272.36,134.6,270.63,133.81,268.92z M141.91,274.18c-1.37-1.79-2.76-3.55-4.19-5.28
			c-0.12-0.15-0.25-0.29-0.37-0.44c2.66,1.94,5.41,3.75,8.25,5.42l-0.96,0.15l-1.51,0.07C142.72,274.12,142.31,274.15,141.91,274.18
			z M117.74,249.51c0.24,0.46,0.47,0.92,0.7,1.38c0.97,2.44,1.55,5.25,1.06,7.78c-0.28,1.32-0.99,2.5-2.12,3.18
			c-1.11,0.7-2.51,0.94-3.94,0.96c-2.83,0.08-5.67-0.64-8.14-2.04c-0.35-0.19-0.69-0.4-1.03-0.62c1.7,0.61,3.59,1.01,5.65,1.01
			c0.01,0,0.03,0,0.04,0c3.64-0.01,6.26-2.27,7.02-6.05c0.46-2.29,0.21-4.95-0.73-7.56l0.04,0.05L117.74,249.51z M91.75,251.42
			c-0.9,0.36-1.55,0.93-2.09,1.76c-0.44,0.73-0.59,1.48-0.67,2.19c-0.69-2.4-0.89-4.9-0.39-7.3c0.37-1.78,1.13-3.48,2.27-4.91
			c1.13-1.43,2.58-2.59,4.19-3.51l0.98-0.51c-0.61,0.89-0.99,1.94-1.11,2.98c-0.05,0.4-0.1,0.8-0.07,1.19
			c0.03,0.39,0,0.79,0.08,1.16l0.19,1.13c0.1,0.37,0.22,0.74,0.33,1.11c0.49,1.46,1.36,2.89,2.64,3.91c1.27,1.02,2.87,1.6,4.47,1.72
			c1.6,0.1,3.25-0.15,4.74-1.07c0.18-0.12,0.37-0.23,0.55-0.37l0.52-0.47c0.18-0.14,0.31-0.38,0.46-0.58l0.21-0.31
			c0.06-0.1,0.09-0.19,0.14-0.29c0.38-0.73,0.65-1.63,0.65-2.61c0-0.99-0.39-2.03-1.01-2.79c-0.31-0.37-0.66-0.71-1.03-0.97
			c-0.39-0.28-0.71-0.49-1.26-0.72l-0.06-0.03c-0.07-0.03-0.14-0.05-0.22-0.07c-0.81-0.2-1.63,0.3-1.83,1.11s0.3,1.63,1.11,1.83
			c0.11,0.03,0.41,0.16,0.6,0.28c0.22,0.12,0.38,0.27,0.55,0.42c0.29,0.31,0.47,0.63,0.51,1.05c0.03,0.42-0.04,0.93-0.29,1.46
			c-0.03,0.06-0.05,0.14-0.08,0.19l-0.08,0.12c-0.06,0.08-0.07,0.18-0.17,0.26c-0.08,0.08-0.16,0.17-0.24,0.26
			c-0.09,0.08-0.21,0.15-0.31,0.23c-0.88,0.62-2.14,0.9-3.32,0.87c-1.2-0.03-2.38-0.42-3.31-1.14c-0.94-0.72-1.62-1.76-2.05-2.94
			c-0.46-1.17-0.62-2.52-0.49-3.69c0.15-1.19,0.66-2.28,1.59-3.03c0.81-0.7,1.94-1.17,3-1.39c1.38,0.05,2.75,0.39,4.07,0.87
			c0.39,0.15,0.78,0.31,1.16,0.49c6.23,3.33,9.35,10.42,8.35,15.42c-0.33,1.66-1.43,4.43-5.06,4.44c-0.01,0-0.02,0-0.03,0
			c-5.03,0-9.09-2.8-11.28-4.71l-0.26-0.35c-0.93-1.28-2.26-2.37-3.92-2.81C93.64,251.08,92.64,251.07,91.75,251.42z M109.54,267.68
			c1.08,0.67,2.17,1.32,3.29,1.93c3.09,1.67,6.32,3.11,9.65,4.28l-0.06,0.44c-0.14,0.69-0.34,1.37-0.51,2.06l-0.26,1.03l-0.38,0.99
			l-0.05,0.14C117.1,275.19,113.19,271.55,109.54,267.68z M123.73,280.54l0.39-1.18l0.37-1.12l0.24-1.15
			c0.15-0.77,0.33-1.53,0.46-2.3l0-0.01c3.31,1.01,6.74,1.64,10.2,1.97c0.29,1.09,0.54,2.19,0.74,3.29c0.3,1.83,0.46,3.68,0.46,5.51
			c0.02,0.92-0.08,1.83-0.18,2.73c-0.03,0.23-0.07,0.47-0.11,0.71c-0.8-0.46-1.61-0.93-2.4-1.41
			C130.39,285.41,127,283.06,123.73,280.54z M258.14,287.58c-0.79,0.48-1.6,0.94-2.4,1.41c-0.04-0.24-0.08-0.48-0.11-0.71
			c-0.1-0.9-0.2-1.81-0.18-2.73c0-1.83,0.17-3.68,0.46-5.51c0.2-1.1,0.45-2.2,0.74-3.29c3.46-0.33,6.89-0.95,10.2-1.97l0,0.01
			c0.12,0.77,0.3,1.53,0.46,2.3l0.24,1.15l0.37,1.12l0.39,1.18C265.05,283.06,261.65,285.41,258.14,287.58z M270.82,278.54
			l-0.05-0.14l-0.38-0.99l-0.26-1.03c-0.17-0.69-0.36-1.37-0.51-2.06l-0.06-0.44c3.33-1.16,6.56-2.61,9.65-4.28
			c1.12-0.61,2.21-1.26,3.29-1.93C278.85,271.55,274.95,275.19,270.82,278.54z M300.29,251.42c-0.89-0.36-1.89-0.34-2.71-0.12
			c-1.66,0.44-2.99,1.53-3.92,2.81l-0.26,0.35c-2.19,1.91-6.25,4.71-11.28,4.71c-0.01,0-0.02,0-0.03,0
			c-3.63-0.01-4.73-2.79-5.06-4.44c-0.93-4.65,1.7-11.09,7.08-14.66c0.8-0.45,1.62-0.83,2.47-1.15c1.48-0.54,3.04-0.87,4.58-0.84
			c0.89,0.26,1.78,0.69,2.45,1.27c0.94,0.75,1.45,1.84,1.59,3.03c0.13,1.18-0.03,2.52-0.49,3.69c-0.43,1.18-1.11,2.22-2.05,2.94
			c-0.93,0.73-2.11,1.11-3.31,1.14c-1.18,0.03-2.45-0.24-3.32-0.87c-0.1-0.08-0.22-0.15-0.31-0.23c-0.08-0.09-0.16-0.18-0.24-0.26
			c-0.1-0.08-0.11-0.18-0.17-0.26l-0.08-0.12c-0.03-0.06-0.05-0.13-0.08-0.19c-0.25-0.53-0.31-1.04-0.29-1.46
			c0.04-0.42,0.21-0.74,0.51-1.05c0.16-0.14,0.33-0.3,0.55-0.42c0.19-0.11,0.48-0.25,0.6-0.28c0.07-0.02,0.15-0.04,0.22-0.07
			c0.77-0.32,1.14-1.21,0.82-1.98c-0.32-0.77-1.21-1.14-1.98-0.82l-0.05,0.02c-0.54,0.23-0.86,0.44-1.26,0.72
			c-0.37,0.27-0.72,0.61-1.03,0.97c-0.62,0.76-1.01,1.8-1.01,2.79c0,0.98,0.26,1.88,0.65,2.61c0.05,0.1,0.08,0.19,0.14,0.29
			l0.21,0.31c0.15,0.2,0.28,0.43,0.46,0.58l0.52,0.47c0.18,0.14,0.37,0.25,0.55,0.37c1.49,0.93,3.14,1.17,4.74,1.07
			c1.6-0.12,3.2-0.7,4.47-1.72c1.28-1.02,2.15-2.45,2.64-3.91c0.11-0.37,0.23-0.74,0.33-1.11l0.19-1.13
			c0.09-0.37,0.05-0.78,0.08-1.16c0.04-0.39-0.02-0.79-0.07-1.19c-0.11-0.96-0.45-1.93-0.98-2.77l0.78,0.41
			c1.59,0.92,3.03,2.07,4.15,3.49c1.12,1.41,1.87,3.09,2.24,4.86c0.48,2.27,0.31,4.65-0.3,6.94c-0.09-0.61-0.26-1.24-0.63-1.86
			C301.85,252.36,301.19,251.79,300.29,251.42z"/>
		<polygon class="st4" points="196.02,297.66 196.02,297.66 196.02,297.66 		"/>
	</g>
	<g>
		<radialGradient id="SVGID_11_" cx="189.2225" cy="175.7928" r="279.5536" gradientUnits="userSpaceOnUse">
			<stop  offset="0" style="stop-color:#E77700;stop-opacity:0"/>
			<stop  offset="1" style="stop-color:#AB3F00"/>
		</radialGradient>
		<path class="st18" d="M307.58,277.18c-0.29-0.76-0.82-1.47-1.57-1.95c-0.74-0.5-1.71-0.72-2.57-0.64l-0.46,0.04
			c-0.21,0.02-0.43,0.07-0.63,0.16c-0.99,0.44-1.43,1.6-0.98,2.59s1.6,1.43,2.59,0.98c0.11-0.05,0.17-0.1,0.27-0.09
			c0.09,0.01,0.23,0.1,0.33,0.23c0.1,0.15,0.15,0.23,0.14,0.56c0,0.28-0.09,0.6-0.22,0.93c-0.59,1.35-2.05,2.6-3.59,3.42
			c-0.78,0.4-1.62,0.72-2.41,0.84c-0.19,0.01-0.4,0.07-0.56,0.04l-0.26-0.01l-0.32-0.06l-0.63-0.11l-0.59-0.18
			c-0.76-0.28-1.38-0.7-1.76-1.31c-0.39-0.6-0.56-1.39-0.57-2.24c-0.02-1.71,0.53-3.56,1.2-5.31c0.68-1.77,1.53-3.49,2.45-5.19
			c0.92-1.7,1.93-3.36,2.97-5c1.03-1.65,2.16-3.24,3.14-5.1c1.85-3.66,2.8-7.94,1.94-12.12c-0.43-2.07-1.33-4.08-2.65-5.74
			c-1.31-1.68-2.97-3.03-4.76-4.09c-1.76-1.06-3.88-1.78-6-2c-2.16-0.22-4.3,0.22-6.27,0.91c-1.97,0.72-3.8,1.74-5.45,2.96
			c-1.66,1.21-3.17,2.58-4.55,4.1c-0.18,0.21-0.33,0.37-0.54,0.63l-0.45,0.58l-0.9,1.15l-1.79,2.31c-1.23,1.51-2.54,2.93-3.8,4.4
			c-1.32,1.41-2.7,2.77-4.05,4.17c-1.41,1.32-2.86,2.61-4.29,3.92c-5.87,5.05-12.35,9.39-19.24,12.9
			c-13.76,7.09-29.22,10.78-44.68,10.75c-15.47,0.05-30.93-3.63-44.71-10.71c-6.9-3.51-13.39-7.84-19.27-12.89
			c-1.43-1.31-2.88-2.59-4.3-3.92c-1.35-1.39-2.73-2.75-4.06-4.16c-1.27-1.47-2.58-2.9-3.81-4.4l-1.79-2.31l-0.9-1.15l-0.45-0.58
			c-0.21-0.26-0.36-0.42-0.54-0.62c-1.38-1.52-2.89-2.88-4.54-4.09c-1.65-1.21-3.46-2.23-5.42-2.94c-1.96-0.69-4.09-1.12-6.22-0.9
			c-2.11,0.23-4.2,0.93-5.95,1.99c-1.78,1.05-3.43,2.39-4.72,4.06c-1.31,1.65-2.2,3.64-2.62,5.69c-0.86,4.15,0.1,8.4,1.93,12.03
			c0.43,0.81,0.89,1.57,1.36,2.31c0.01,0.04,0.02,0.08,0.04,0.12c0.06,0.17,0.17,0.31,0.31,0.42c0.48,0.75,0.97,1.49,1.44,2.24
			c1.04,1.65,2.05,3.31,2.98,5.01c0.92,1.7,1.78,3.43,2.47,5.21c0.67,1.76,1.23,3.62,1.21,5.37c0.3,3.67-4.33,5.16-7.34,3.18
			c-1.56-0.82-3.04-2.09-3.66-3.5c-0.3-0.68-0.32-1.4-0.09-1.63c0.11-0.16,0.28-0.27,0.4-0.28c0.13-0.02,0.22,0.03,0.35,0.09
			c0.18,0.08,0.39,0.13,0.6,0.15c1.01,0.08,1.89-0.68,1.96-1.69c0.08-1.01-0.68-1.89-1.69-1.96l-0.4-0.03
			c-0.84-0.06-1.77,0.15-2.48,0.64c-0.72,0.48-1.22,1.16-1.5,1.9c-0.14,0.37-0.22,0.76-0.25,1.16c-0.03,0.43,0.05,0.73,0.1,1.08
			c0.14,0.67,0.39,1.26,0.69,1.79c1.3,2.06,3.13,3.24,5.05,4.15c0.97,0.44,2,0.78,3.13,0.89c0.29,0.02,0.56,0.06,0.88,0.03
			l0.46-0.03l0.4-0.07c0.27-0.05,0.53-0.1,0.8-0.16l0.8-0.26c1.04-0.4,2.09-1.11,2.74-2.14c0.65-1.02,0.87-2.2,0.89-3.28
			c0.02-1.09-0.15-2.14-0.4-3.14c-0.24-1.01-0.56-1.98-0.93-2.92c-0.72-1.89-1.61-3.68-2.56-5.43c-0.95-1.75-1.97-3.45-3.03-5.12
			c-0.47-0.76-0.96-1.5-1.43-2.24c0-0.02,0-0.03-0.01-0.05l-0.01-0.04c-0.4-1.21-0.7-2.54-0.84-3.8c-0.13-1.25-0.07-2.58,0.41-3.36
			c0.21-0.33,0.64-0.71,1.04-0.84c0.4-0.15,0.85-0.15,1.35-0.01c1.02,0.29,1.96,1.04,2.62,2l2.43,3.38c0.84,1.11,1.58,2.3,2.49,3.36
			l2.64,3.24l1.33,1.62l1.41,1.54c7.49,8.27,16.11,15.52,25.55,21.49c18.96,11.84,41.29,18.18,63.66,18.23
			c22.37-0.06,44.7-6.39,63.66-18.23c9.44-5.97,18.06-13.22,25.55-21.49l1.41-1.54l1.33-1.62l2.64-3.24
			c0.91-1.06,1.66-2.24,2.49-3.36l2.43-3.38c0.66-0.96,1.6-1.71,2.62-2c0.5-0.14,0.95-0.14,1.35,0.01c0.4,0.13,0.83,0.51,1.04,0.84
			c0.48,0.79,0.54,2.11,0.41,3.36c-0.12,1.13-0.38,2.3-0.72,3.4c-0.55,0.87-1.14,1.75-1.69,2.65c-1.05,1.67-2.08,3.37-3.03,5.13
			c-0.95,1.75-1.84,3.55-2.57,5.45c-0.37,0.95-0.69,1.92-0.93,2.94c-0.25,1.01-0.42,2.07-0.4,3.18c0.02,1.1,0.24,2.31,0.91,3.37
			c0.67,1.06,1.74,1.81,2.81,2.21l0.81,0.27c0.27,0.07,0.54,0.11,0.81,0.16l0.41,0.08l0.47,0.03c0.32,0.03,0.6-0.01,0.9-0.03
			c1.16-0.12,2.2-0.47,3.18-0.91c0.98-0.45,1.92-0.99,2.79-1.67c0.86-0.69,1.7-1.48,2.33-2.56c0.31-0.55,0.57-1.15,0.71-1.84
			c0.05-0.36,0.13-0.67,0.1-1.12C307.81,277.97,307.72,277.57,307.58,277.18z M286.85,262.84c-2.71,1.87-5.61,3.53-8.56,5.01
			c-2.91,1.46-5.94,2.67-9.01,3.68c-0.21-2.6-0.19-5.25,0.26-7.87c0.33-2.12,0.83-4.22,1.47-6.28c0.06,0.53,0.14,1.07,0.28,1.6
			c0.38,1.52,1.3,3.06,2.74,3.89c0.7,0.42,1.47,0.68,2.24,0.85c0.78,0.13,1.53,0.22,2.29,0.25c3.05,0.16,6.09-0.65,8.81-1.98
			c0.12-0.06,0.24-0.13,0.36-0.19L286.85,262.84z M253.65,285.49c-0.07,0.97-0.11,1.95-0.1,2.94c0.01,0.49,0.03,0.99,0.08,1.49
			c0.01,0.09,0.02,0.17,0.02,0.25c-3.95,2.18-8.02,4.14-12.18,5.86c0.01-0.07,0.01-0.12,0.02-0.19c0.12-0.82,0.33-1.66,0.58-2.5
			c0.5-1.68,1.17-3.35,1.89-5.01c1.46-3.3,3.27-6.42,5.27-9.49c0.43-0.66,0.89-1.31,1.34-1.97c0.44,0.03,0.88,0.06,1.32,0.09
			c1.07-0.02,2.14-0.04,3.2-0.09c0.07,0,0.13-0.01,0.2-0.02c-0.27,0.96-0.53,1.93-0.75,2.9
			C254.11,281.64,253.78,283.55,253.65,285.49z M248.92,274.1l-1.51-0.07l-0.87-0.13c2.74-1.62,5.41-3.36,7.98-5.22
			c-0.06,0.08-0.13,0.15-0.2,0.23c-1.43,1.73-2.82,3.49-4.19,5.28C249.73,274.15,249.32,274.12,248.92,274.1z M254.95,274.22
			c-0.87,0.01-1.75,0.04-2.62,0.06c1.05-1.48,2.13-2.95,3.23-4.4c1.31-1.72,2.65-3.43,4-5.12c0.56-0.46,1.11-0.94,1.67-1.42
			c-1.09,1.81-2.11,3.66-2.99,5.58c-0.78,1.7-1.48,3.44-2.09,5.21C255.74,274.16,255.35,274.2,254.95,274.22z M259.31,269.42
			c1.6-3.37,3.52-6.61,5.78-9.59c0.05-0.07,0.1-0.13,0.16-0.2c0.27-0.25,0.54-0.5,0.8-0.75c1.23-1.29,2.48-2.57,3.7-3.87
			c-1.08,2.66-1.93,5.41-2.5,8.25c-0.64,2.96-0.78,6.03-0.62,9.08c-3,0.88-6.08,1.41-9.17,1.69
			C257.99,272.46,258.6,270.92,259.31,269.42z M286.74,260.78c-2.47,1.4-5.31,2.12-8.14,2.04c-1.43-0.02-2.82-0.25-3.94-0.96
			c-1.12-0.68-1.84-1.86-2.12-3.18c-0.5-2.53,0.09-5.34,1.06-7.78c0.15-0.31,0.31-0.62,0.47-0.93l1.63-2.14
			c-0.85,2.53-1.08,5.08-0.64,7.29c0.76,3.78,3.38,6.04,7.02,6.05c0.01,0,0.03,0,0.04,0c2.06,0,3.95-0.4,5.65-1.01
			C287.43,260.38,287.09,260.58,286.74,260.78z M242.03,276.41c0.42-0.22,0.84-0.46,1.26-0.68c0.74,0.18,1.48,0.35,2.22,0.52
			l1.57,0.33l1.18,0.12c-0.24,0.34-0.5,0.66-0.74,1c-2.16,3.01-4.2,6.19-5.87,9.57c-0.83,1.69-1.6,3.41-2.24,5.24
			c-0.31,0.91-0.6,1.85-0.79,2.85c-0.1,0.5-0.17,1.02-0.21,1.56c0,0.11-0.01,0.23-0.01,0.34c-2.72,1.04-5.47,1.98-8.25,2.81
			c-2.87,0.34-5.84,0.48-8.76,0.34c-3.39-0.15-6.79-0.61-10.02-1.59c-1.62-0.47-3.2-1.08-4.69-1.85c-1.49-0.77-2.93-1.64-4.16-2.77
			c-1.24-1.11-2.34-2.37-3.2-3.78c-0.53-0.89-0.96-1.84-1.3-2.81c0.13,0,0.27,0,0.4-0.01c1.31,1.48,2.76,2.85,4.34,4.06
			c1.98,1.48,4.17,2.71,6.51,3.6c4.68,1.81,9.9,2.05,14.81,1c2.45-0.57,4.83-1.44,7.04-2.72c1.1-0.64,2.17-1.38,3.14-2.29
			c0.95-0.93,1.93-1.97,2.31-3.68c0.03-0.23,0.05-0.46,0.07-0.68c0-0.2-0.02-0.39-0.04-0.59c-0.05-0.39-0.13-0.79-0.28-1.18
			c-0.28-0.77-0.79-1.45-1.37-1.96c-1.17-1.01-2.5-1.46-3.76-1.76c-0.1-0.02-0.19-0.03-0.29-0.05
			C234.7,279.94,238.42,278.29,242.03,276.41z M196.02,297.66c-0.01,0.02-2.77,4.82-7.84,7.17c-5.64-0.37-11.24-1.15-16.77-2.32
			c3.31-0.34,6.61-0.95,9.8-1.99c3.38-1.08,6.62-2.78,9.34-5.15c1.35-1.2,2.52-2.59,3.55-4.08c0.75-1.15,1.36-2.38,1.9-3.65
			c0.01,0,0.01,0,0.02,0s0.01,0,0.02,0c0.53,1.27,1.15,2.49,1.9,3.65c1.03,1.49,2.2,2.88,3.55,4.08c2.72,2.37,5.96,4.07,9.34,5.15
			c3.19,1.04,6.48,1.65,9.8,1.99c-5.52,1.17-11.13,1.94-16.77,2.32C198.8,302.48,196.04,297.68,196.02,297.66z M213.66,289.46
			c0.6,0.82,1.44,1.29,2.22,1.62c0.8,0.33,1.64,0.5,2.46,0.56c0.82,0.07,1.63,0.04,2.42-0.06c0.81-0.1,1.53-0.23,2.39-0.5
			c0.06-0.02,0.11-0.04,0.17-0.06c0.81-0.36,1.17-1.3,0.82-2.1c-0.36-0.81-1.3-1.17-2.1-0.82l-0.04,0.02
			c-1.04,0.46-2.39,0.8-3.57,0.84c-0.61,0.03-1.19-0.03-1.73-0.18c-0.55-0.16-1.02-0.38-1.31-0.68c-0.29-0.3-0.43-0.67-0.39-1.12
			c0.04-0.43,0.29-0.9,0.67-1.3c3.35-0.67,6.66-1.5,9.92-2.51c1.72,0.02,3.45,0.18,5.02,0.6c1.04,0.27,2.03,0.69,2.65,1.28
			c0.31,0.29,0.52,0.61,0.64,0.96c0.07,0.17,0.09,0.37,0.12,0.57l0.01,0.3c-0.02,0.07-0.03,0.14-0.03,0.21
			c-0.15,0.64-0.8,1.52-1.56,2.22c-0.77,0.72-1.69,1.36-2.65,1.92c-1.93,1.13-4.09,1.9-6.29,2.43c-2.21,0.52-4.49,0.77-6.76,0.69
			c-2.27-0.09-4.52-0.52-6.7-1.21c-3.51-1.13-6.72-3.13-9.55-5.6c4.29-0.2,8.56-0.66,12.79-1.41c-0.06,0.15-0.12,0.29-0.16,0.45
			C212.83,287.52,213.05,288.66,213.66,289.46z M166.57,283.16c3.22,0.99,6.49,1.82,9.79,2.48c0.39,0.41,0.65,0.89,0.69,1.33
			c0.05,0.45-0.09,0.82-0.39,1.12c-0.29,0.3-0.76,0.53-1.31,0.68c-0.54,0.15-1.13,0.21-1.73,0.18c-1.18-0.05-2.53-0.38-3.57-0.84
			l-0.04-0.02c-0.05-0.02-0.11-0.04-0.17-0.06c-0.84-0.26-1.74,0.21-2,1.05c-0.26,0.84,0.21,1.74,1.05,2
			c0.86,0.27,1.58,0.4,2.39,0.5c0.79,0.09,1.6,0.12,2.42,0.06c0.82-0.06,1.66-0.24,2.46-0.56c0.78-0.32,1.61-0.8,2.22-1.62
			c0.61-0.8,0.83-1.94,0.58-2.88c-0.04-0.17-0.11-0.32-0.17-0.47c4.23,0.75,8.51,1.22,12.8,1.42c-2.84,2.48-6.04,4.48-9.56,5.61
			c-2.17,0.69-4.42,1.12-6.7,1.21c-2.27,0.08-4.55-0.17-6.76-0.69c-2.2-0.53-4.36-1.31-6.29-2.43c-0.96-0.56-1.88-1.19-2.65-1.92
			c-0.76-0.7-1.41-1.58-1.56-2.22c0-0.07-0.02-0.14-0.03-0.21l0.01-0.3c0.02-0.2,0.05-0.39,0.12-0.57c0.12-0.35,0.33-0.67,0.64-0.96
			c0.62-0.59,1.6-1.01,2.65-1.28C163.05,283.32,164.82,283.17,166.57,283.16z M161.23,281.34c-0.12,0.02-0.24,0.04-0.36,0.07
			c-1.26,0.3-2.59,0.75-3.76,1.76c-0.58,0.5-1.08,1.19-1.37,1.96c-0.15,0.38-0.23,0.78-0.28,1.18c-0.01,0.2-0.03,0.39-0.04,0.59
			c0.02,0.23,0.04,0.46,0.07,0.68c0.38,1.71,1.36,2.75,2.31,3.68c0.97,0.91,2.04,1.64,3.14,2.29c2.21,1.28,4.59,2.15,7.04,2.72
			c4.9,1.05,10.12,0.81,14.81-1c2.34-0.89,4.53-2.11,6.51-3.6c1.58-1.22,3.04-2.58,4.34-4.07c0.13,0,0.27,0,0.4,0.01
			c-0.35,0.97-0.77,1.92-1.3,2.81c-0.86,1.42-1.96,2.67-3.2,3.78c-1.23,1.12-2.68,2-4.16,2.77c-1.49,0.76-3.07,1.37-4.69,1.85
			c-3.23,0.98-6.63,1.43-10.02,1.59c-2.92,0.14-5.9,0-8.76-0.34c-2.78-0.84-5.54-1.77-8.25-2.81c0-0.11-0.01-0.23-0.01-0.34
			c-0.04-0.55-0.11-1.07-0.21-1.56c-0.19-1-0.47-1.94-0.79-2.85c-0.63-1.82-1.41-3.55-2.24-5.24c-1.67-3.37-3.71-6.56-5.87-9.57
			c-0.24-0.34-0.5-0.66-0.74-1l1.18-0.12l1.57-0.33c0.77-0.17,1.54-0.36,2.3-0.54c0.4,0.22,0.8,0.44,1.21,0.66
			C153.66,278.26,157.4,279.91,161.23,281.34z M138.4,285.49c-0.14-1.94-0.46-3.85-0.89-5.72c-0.22-0.98-0.47-1.94-0.75-2.9
			c0.07,0,0.13,0.01,0.2,0.02c1.07,0.05,2.13,0.07,3.2,0.09c0.44-0.02,0.88-0.05,1.32-0.09c0.44,0.66,0.91,1.3,1.34,1.97
			c2,3.07,3.81,6.19,5.27,9.49c0.72,1.65,1.39,3.33,1.89,5.01c0.25,0.84,0.46,1.68,0.58,2.5c0.01,0.07,0.01,0.13,0.02,0.19
			c-4.16-1.73-8.23-3.68-12.18-5.86c0.01-0.08,0.02-0.17,0.02-0.25c0.05-0.5,0.06-1,0.08-1.49
			C138.51,287.44,138.47,286.46,138.4,285.49z M105.19,262.84l-0.89-1.05c0.12,0.06,0.24,0.13,0.36,0.19
			c2.72,1.33,5.76,2.14,8.81,1.98c0.76-0.02,1.51-0.12,2.29-0.25c0.77-0.17,1.53-0.43,2.24-0.85c1.44-0.82,2.36-2.36,2.74-3.89
			c0.14-0.53,0.22-1.06,0.28-1.6c0.65,2.06,1.14,4.16,1.47,6.28c0.45,2.62,0.46,5.27,0.26,7.87c-3.08-1.01-6.1-2.22-9.01-3.68
			C110.8,266.37,107.9,264.71,105.19,262.84z M124.79,263.27c-0.59-2.91-1.46-5.74-2.59-8.46c1.26,1.36,2.56,2.68,3.84,4.03
			c0.15,0.14,0.3,0.27,0.44,0.41c0.15,0.2,0.31,0.39,0.46,0.59c2.27,2.98,4.18,6.22,5.78,9.59c0.71,1.49,1.32,3.04,1.85,4.61
			c-3.09-0.28-6.17-0.81-9.17-1.69C125.57,269.29,125.43,266.22,124.79,263.27z M133.81,268.92c-0.92-1.99-1.98-3.91-3.12-5.78
			c0.51,0.44,1.02,0.88,1.54,1.31c1.44,1.79,2.87,3.6,4.26,5.43c1.1,1.45,2.18,2.92,3.23,4.4c-0.87-0.03-1.75-0.06-2.62-0.06
			c-0.4-0.02-0.8-0.06-1.19-0.09C135.29,272.36,134.6,270.63,133.81,268.92z M141.91,274.18c-1.37-1.79-2.76-3.55-4.19-5.28
			c-0.12-0.15-0.25-0.29-0.37-0.44c2.66,1.94,5.41,3.75,8.25,5.42l-0.96,0.15l-1.51,0.07C142.72,274.12,142.31,274.15,141.91,274.18
			z M117.74,249.51c0.24,0.46,0.47,0.92,0.7,1.38c0.97,2.44,1.55,5.25,1.06,7.78c-0.28,1.32-0.99,2.5-2.12,3.18
			c-1.11,0.7-2.51,0.94-3.94,0.96c-2.83,0.08-5.67-0.64-8.14-2.04c-0.35-0.19-0.69-0.4-1.03-0.62c1.7,0.61,3.59,1.01,5.65,1.01
			c0.01,0,0.03,0,0.04,0c3.64-0.01,6.26-2.27,7.02-6.05c0.46-2.29,0.21-4.95-0.73-7.56l0.04,0.05L117.74,249.51z M91.75,251.42
			c-0.9,0.36-1.55,0.93-2.09,1.76c-0.44,0.73-0.59,1.48-0.67,2.19c-0.69-2.4-0.89-4.9-0.39-7.3c0.37-1.78,1.13-3.48,2.27-4.91
			c1.13-1.43,2.58-2.59,4.19-3.51l0.98-0.51c-0.61,0.89-0.99,1.94-1.11,2.98c-0.05,0.4-0.1,0.8-0.07,1.19
			c0.03,0.39,0,0.79,0.08,1.16l0.19,1.13c0.1,0.37,0.22,0.74,0.33,1.11c0.49,1.46,1.36,2.89,2.64,3.91c1.27,1.02,2.87,1.6,4.47,1.72
			c1.6,0.1,3.25-0.15,4.74-1.07c0.18-0.12,0.37-0.23,0.55-0.37l0.52-0.47c0.18-0.14,0.31-0.38,0.46-0.58l0.21-0.31
			c0.06-0.1,0.09-0.19,0.14-0.29c0.38-0.73,0.65-1.63,0.65-2.61c0-0.99-0.39-2.03-1.01-2.79c-0.31-0.37-0.66-0.71-1.03-0.97
			c-0.39-0.28-0.71-0.49-1.26-0.72l-0.06-0.03c-0.07-0.03-0.14-0.05-0.22-0.07c-0.81-0.2-1.63,0.3-1.83,1.11s0.3,1.63,1.11,1.83
			c0.11,0.03,0.41,0.16,0.6,0.28c0.22,0.12,0.38,0.27,0.55,0.42c0.29,0.31,0.47,0.63,0.51,1.05c0.03,0.42-0.04,0.93-0.29,1.46
			c-0.03,0.06-0.05,0.14-0.08,0.19l-0.08,0.12c-0.06,0.08-0.07,0.18-0.17,0.26c-0.08,0.08-0.16,0.17-0.24,0.26
			c-0.09,0.08-0.21,0.15-0.31,0.23c-0.88,0.62-2.14,0.9-3.32,0.87c-1.2-0.03-2.38-0.42-3.31-1.14c-0.94-0.72-1.62-1.76-2.05-2.94
			c-0.46-1.17-0.62-2.52-0.49-3.69c0.15-1.19,0.66-2.28,1.59-3.03c0.81-0.7,1.94-1.17,3-1.39c1.38,0.05,2.75,0.39,4.07,0.87
			c0.39,0.15,0.78,0.31,1.16,0.49c6.23,3.33,9.35,10.42,8.35,15.42c-0.33,1.66-1.43,4.43-5.06,4.44c-0.01,0-0.02,0-0.03,0
			c-5.03,0-9.09-2.8-11.28-4.71l-0.26-0.35c-0.93-1.28-2.26-2.37-3.92-2.81C93.64,251.08,92.64,251.07,91.75,251.42z M109.54,267.68
			c1.08,0.67,2.17,1.32,3.29,1.93c3.09,1.67,6.32,3.11,9.65,4.28l-0.06,0.44c-0.14,0.69-0.34,1.37-0.51,2.06l-0.26,1.03l-0.38,0.99
			l-0.05,0.14C117.1,275.19,113.19,271.55,109.54,267.68z M123.73,280.54l0.39-1.18l0.37-1.12l0.24-1.15
			c0.15-0.77,0.33-1.53,0.46-2.3l0-0.01c3.31,1.01,6.74,1.64,10.2,1.97c0.29,1.09,0.54,2.19,0.74,3.29c0.3,1.83,0.46,3.68,0.46,5.51
			c0.02,0.92-0.08,1.83-0.18,2.73c-0.03,0.23-0.07,0.47-0.11,0.71c-0.8-0.46-1.61-0.93-2.4-1.41
			C130.39,285.41,127,283.06,123.73,280.54z M258.14,287.58c-0.79,0.48-1.6,0.94-2.4,1.41c-0.04-0.24-0.08-0.48-0.11-0.71
			c-0.1-0.9-0.2-1.81-0.18-2.73c0-1.83,0.17-3.68,0.46-5.51c0.2-1.1,0.45-2.2,0.74-3.29c3.46-0.33,6.89-0.95,10.2-1.97l0,0.01
			c0.12,0.77,0.3,1.53,0.46,2.3l0.24,1.15l0.37,1.12l0.39,1.18C265.05,283.06,261.65,285.41,258.14,287.58z M270.82,278.54
			l-0.05-0.14l-0.38-0.99l-0.26-1.03c-0.17-0.69-0.36-1.37-0.51-2.06l-0.06-0.44c3.33-1.16,6.56-2.61,9.65-4.28
			c1.12-0.61,2.21-1.26,3.29-1.93C278.85,271.55,274.95,275.19,270.82,278.54z M300.29,251.42c-0.89-0.36-1.89-0.34-2.71-0.12
			c-1.66,0.44-2.99,1.53-3.92,2.81l-0.26,0.35c-2.19,1.91-6.25,4.71-11.28,4.71c-0.01,0-0.02,0-0.03,0
			c-3.63-0.01-4.73-2.79-5.06-4.44c-0.93-4.65,1.7-11.09,7.08-14.66c0.8-0.45,1.62-0.83,2.47-1.15c1.48-0.54,3.04-0.87,4.58-0.84
			c0.89,0.26,1.78,0.69,2.45,1.27c0.94,0.75,1.45,1.84,1.59,3.03c0.13,1.18-0.03,2.52-0.49,3.69c-0.43,1.18-1.11,2.22-2.05,2.94
			c-0.93,0.73-2.11,1.11-3.31,1.14c-1.18,0.03-2.45-0.24-3.32-0.87c-0.1-0.08-0.22-0.15-0.31-0.23c-0.08-0.09-0.16-0.18-0.24-0.26
			c-0.1-0.08-0.11-0.18-0.17-0.26l-0.08-0.12c-0.03-0.06-0.05-0.13-0.08-0.19c-0.25-0.53-0.31-1.04-0.29-1.46
			c0.04-0.42,0.21-0.74,0.51-1.05c0.16-0.14,0.33-0.3,0.55-0.42c0.19-0.11,0.48-0.25,0.6-0.28c0.07-0.02,0.15-0.04,0.22-0.07
			c0.77-0.32,1.14-1.21,0.82-1.98c-0.32-0.77-1.21-1.14-1.98-0.82l-0.05,0.02c-0.54,0.23-0.86,0.44-1.26,0.72
			c-0.37,0.27-0.72,0.61-1.03,0.97c-0.62,0.76-1.01,1.8-1.01,2.79c0,0.98,0.26,1.88,0.65,2.61c0.05,0.1,0.08,0.19,0.14,0.29
			l0.21,0.31c0.15,0.2,0.28,0.43,0.46,0.58l0.52,0.47c0.18,0.14,0.37,0.25,0.55,0.37c1.49,0.93,3.14,1.17,4.74,1.07
			c1.6-0.12,3.2-0.7,4.47-1.72c1.28-1.02,2.15-2.45,2.64-3.91c0.11-0.37,0.23-0.74,0.33-1.11l0.19-1.13
			c0.09-0.37,0.05-0.78,0.08-1.16c0.04-0.39-0.02-0.79-0.07-1.19c-0.11-0.96-0.45-1.93-0.98-2.77l0.78,0.41
			c1.59,0.92,3.03,2.07,4.15,3.49c1.12,1.41,1.87,3.09,2.24,4.86c0.48,2.27,0.31,4.65-0.3,6.94c-0.09-0.61-0.26-1.24-0.63-1.86
			C301.85,252.36,301.19,251.79,300.29,251.42z"/>
		<radialGradient id="SVGID_12_" cx="196.0222" cy="297.6598" r="1.423081e-03" gradientUnits="userSpaceOnUse">
			<stop  offset="0" style="stop-color:#E77700;stop-opacity:0"/>
			<stop  offset="1" style="stop-color:#AB3F00"/>
		</radialGradient>
		<polygon class="st19" points="196.02,297.66 196.02,297.66 196.02,297.66 		"/>
	</g>
	<g>
		<path class="st20" d="M229.02,190.47c0,0,0.21,4.71-2.95,6.68c-4.59,2.86-8.34-1.47-5.32-10.85c2.06-6.38-0.26-10.19-2.73-12.26
			c-2.05-1.72-3.36-4.17-3.41-6.84c-0.08-4.58-1.4-9.48-6.34-12.43c0.11,1.26-0.13,2.24-0.54,3.01c-0.83,1.53-3.16,0.93-3.14-0.82
			c0.27-18.37-20.18-17.94-20.18-17.94c7.39,6.95-8.02,9.48-2.79,17.66c5.23,8.18-3.77,10.6-8.45,15.45
			c-2.96,3.07-3.51,7.59-3.52,10.51c0,1.92-2.57,2.62-3.49,0.94c-0.51-0.94-0.68-1.87-0.68-1.87s-5.37,3.77-1.19,7.99
			c4.85,4.89,0.9,10.3,0.9,10.3s-13.05,16-1.47,29.24c16.7,19.09,56.61,16.49,66.48-5.33c3.65-8.07,1.64-11.61-1.46-16.14
			C237.88,197.14,229.02,190.47,229.02,190.47z"/>
	</g>
	<g>
		<linearGradient id="SVGID_13_" gradientUnits="userSpaceOnUse" x1="197.1263" y1="135.6623" x2="192.9365" y2="383.507">
			<stop  offset="0" style="stop-color:#E7C100;stop-opacity:0"/>
			<stop  offset="1" style="stop-color:#FFE100"/>
		</linearGradient>
		<path class="st21" d="M229.02,190.47c0,0,0.21,4.71-2.95,6.68c-4.59,2.86-8.34-1.47-5.32-10.85c2.06-6.38-0.26-10.19-2.73-12.26
			c-2.05-1.72-3.36-4.17-3.41-6.84c-0.08-4.58-1.4-9.48-6.34-12.43c0.11,1.26-0.13,2.24-0.54,3.01c-0.83,1.53-3.16,0.93-3.14-0.82
			c0.27-18.37-20.18-17.94-20.18-17.94c7.39,6.95-8.02,9.48-2.79,17.66c5.23,8.18-3.77,10.6-8.45,15.45
			c-2.96,3.07-3.51,7.59-3.52,10.51c0,1.92-2.57,2.62-3.49,0.94c-0.51-0.94-0.68-1.87-0.68-1.87s-5.37,3.77-1.19,7.99
			c4.85,4.89,0.9,10.3,0.9,10.3s-13.05,16-1.47,29.24c16.7,19.09,56.61,16.49,66.48-5.33c3.65-8.07,1.64-11.61-1.46-16.14
			C237.88,197.14,229.02,190.47,229.02,190.47z"/>
	</g>
	<g>
		<path class="st15" d="M176.68,185.74c-0.07,0.92,0.11,1.81,0.35,2.63l0.02,0.06c0.04,0.13,0.09,0.25,0.17,0.37
			c0.43,0.65,1.3,0.84,1.95,0.41c0.65-0.43,0.84-1.3,0.41-1.95c-0.64-0.99-0.83-2.01-0.3-3.04c0.52-1.03,1.58-1.93,2.67-2.71
			c2.25-1.58,4.77-2.87,7.28-4.25c1.28-0.7,2.51-1.51,3.7-2.38c1.17-0.9,2.27-1.89,3.27-2.98c1.99-2.19,3.53-4.84,4.35-7.71
			c0.77-2.87,1.03-5.92,0.21-8.91c-0.76-2.98-3.12-5.62-6.07-6.62c-2.92-1.12-6.5-0.48-8.72,1.83c-0.53,0.6-1.05,1.33-1.09,2.32
			c-0.02,0.49,0.12,1.01,0.41,1.42c0.14,0.2,0.31,0.37,0.48,0.52c0.17,0.14,0.32,0.25,0.5,0.38c0.67,0.48,1.72,0.79,2.7,0.5
			c0.48-0.14,0.91-0.37,1.28-0.65c0.39-0.29,0.69-0.54,1.06-0.98l0.33-0.39c0.24-0.29,0.36-0.66,0.32-1.06
			c-0.08-0.79-0.79-1.36-1.57-1.28c-0.79,0.08-1.36,0.78-1.28,1.57c0.02,0.18-0.13,0.49-0.25,0.69c-0.14,0.21-0.31,0.4-0.5,0.5
			c-0.36,0.23-0.86,0.21-1.37-0.09c-0.57-0.33-0.8-0.63-0.8-1.09c0.01-0.45,0.31-1,0.74-1.43c0.87-0.88,2.13-1.43,3.39-1.62
			c0.67-0.1,1.34-0.1,2-0.01c0.56,0.27,1.13,0.7,1.51,1.21c0.5,0.63,0.79,1.42,0.88,2.25c0.19,1.68-0.33,3.47-1.03,5.13
			c-1.44,3.36-3.8,6.28-6.55,8.77c-2.72,2.54-5.85,4.65-8.59,7.49c-1.33,1.42-2.58,3.21-2.89,5.37c-0.29,1.95,0.25,3.85,1.04,5.49
			C176.7,185.59,176.68,185.67,176.68,185.74z M177.45,180.26c0.18-1.63,1.15-3.14,2.36-4.47c2.46-2.66,5.61-4.88,8.36-7.54
			c2.77-2.63,5.32-5.68,6.84-9.3c0.75-1.79,1.36-3.76,1.13-5.86c-0.08-0.73-0.29-1.48-0.64-2.16c1.76,1.06,3.08,2.78,3.61,4.82
			c0.7,2.53,0.49,5.36-0.22,7.96c-0.74,2.61-2.14,5.01-3.97,7.03c-1.85,2.01-4.08,3.68-6.53,4.98c-2.49,1.33-5.08,2.59-7.52,4.26
			c-1.12,0.79-2.24,1.67-3.15,2.93C177.47,182.04,177.34,181.14,177.45,180.26z"/>
		<path class="st15" d="M222.64,217.25c-0.2-1.49-0.78-2.9-1.54-4.16l-0.02-0.03l-0.02-0.03c-1.13-1.44-2.21-2.99-3.11-4.6
			c-0.87-1.56-1.59-3.22-1.98-4.95c0-0.01,0-0.03-0.01-0.04c0-0.01-0.01-0.04-0.01-0.05c0-0.01-0.01-0.02-0.02-0.03
			c0-0.02-0.01-0.04-0.02-0.06c-0.02-0.09-0.06-0.19-0.11-0.28c-0.27-0.48-0.87-0.65-1.35-0.38c-0.44,0.25-0.6,0.79-0.41,1.24
			c0.62,2.65,0.48,5.47-0.2,8.16c-0.12,0.45-0.27,0.9-0.42,1.34c-0.17,0.3-0.34,0.6-0.53,0.88c-0.68,1.03-1.51,1.98-2.4,2.86
			c-1.8,1.73-3.91,3.25-6.24,3.97c-1.15,0.35-2.39,0.45-3.41,0.02c-0.5-0.21-0.98-0.54-1.31-0.99c-0.37-0.41-0.57-0.93-0.67-1.48
			c-0.15-1.12,0.17-2.33,0.69-3.45c0.44-0.95,1.01-1.86,1.65-2.7c1.14-0.73,2.25-1.51,3.31-2.37c4.5-3.69,8.11-8.76,9.35-14.59
			c0.19-0.72,0.26-1.45,0.39-2.18c0.05-0.74,0.17-1.46,0.17-2.22c0.06-1.49-0.08-3-0.4-4.47c-0.32-1.47-0.84-2.9-1.54-4.25
			c-0.67-1.27-1.44-2.42-2.5-3.51c0-0.7-0.03-1.41-0.13-2.09c-0.21-1.65-0.68-3.24-1.31-4.76c-0.62-1.47-1.35-2.82-2.35-4.15
			c0.03-0.66,0-1.34-0.16-2.03c-0.08-0.41-0.22-0.83-0.41-1.24c-0.1-0.2-0.21-0.41-0.35-0.61c-0.07-0.1-0.14-0.2-0.23-0.3
			c-0.1-0.11-0.15-0.18-0.35-0.33c-0.45-0.31-1.06-0.19-1.36,0.25c-0.31,0.45-0.19,1.06,0.25,1.36c-0.04-0.04,0.1,0.08,0.16,0.16
			c0.08,0.09,0.15,0.2,0.22,0.32c0.13,0.24,0.25,0.51,0.32,0.8c0.17,0.58,0.22,1.24,0.2,1.9c-0.03,1.34-0.35,2.7-0.77,4.04
			c-0.89,2.67-2.1,5.28-3.75,7.58c-0.8,1.17-1.72,2.26-2.67,3.31c-0.98,1.03-2.01,2.02-3.1,2.95c-2.16,1.88-4.47,3.61-6.81,5.3
			l-7.11,5.04c-2.36,1.77-4.6,3.74-6.53,6.04c-1.92,2.29-3.54,4.9-4.53,7.8c-1,2.88-1.34,6.08-0.65,9.17
			c0.09,0.39,0.19,0.77,0.31,1.15l0.36,1.06c0.25,0.71,0.53,1.41,0.84,2.11c0.63,1.4,1.43,2.76,2.44,3.98
			c2,2.47,4.86,4.18,7.82,5.06c2.97,0.92,6.02,1.17,9.01,1.15c3.03,0.01,6.15-0.54,9-1.65c0.61-0.22,1.2-0.48,1.78-0.76c0,0,0,0,0,0
			c0.83,0.3,1.52,0.46,2.28,0.61c0.74,0.15,1.49,0.25,2.24,0.32c1.5,0.13,3,0.09,4.48-0.12c1.48-0.22,2.94-0.56,4.32-1.1
			c0.35-0.13,0.68-0.29,1.02-0.44c0.33-0.14,0.69-0.29,1.04-0.51c0.68-0.4,1.28-0.85,1.84-1.34c1.13-0.97,2.11-2.08,2.96-3.29
			c0.85-1.21,1.54-2.55,1.97-3.98C222.7,220.28,222.86,218.74,222.64,217.25z M198.62,214.77c-0.57,1.21-1,2.58-0.82,4.05
			c0.06,0.36,0.16,0.73,0.29,1.07c0.18,0.32,0.32,0.69,0.58,0.95c0.44,0.6,1.06,1.04,1.74,1.34c1.38,0.59,2.88,0.44,4.19,0.07
			c2.56-0.77,4.72-2.29,6.62-4.03c-0.29,0.48-0.57,0.96-0.89,1.42c-1.57,2.33-3.59,4.33-5.82,5.99c-1.52,1.11-3.12,2.08-4.79,2.9
			c-0.87,0.25-1.75,0.42-2.64,0.47c-1.19,0.08-2.38-0.07-3.38-0.57c-1-0.49-1.74-1.38-2.14-2.47c-0.94-2.2-0.26-4.76,1.1-6.81
			c0.95-1.38,2.15-2.61,3.48-3.7c0.36-0.2,0.71-0.39,1.07-0.59c0.66-0.36,1.33-0.73,1.99-1.12
			C199,214.08,198.79,214.41,198.62,214.77z M212.35,187.06c0.32,1.31,0.5,2.68,0.45,4.04c0.02,0.68-0.09,1.38-0.13,2.06
			c-0.11,0.68-0.17,1.37-0.34,2.05c-0.25,1.36-0.71,2.67-1.2,3.97c-0.56,1.27-1.15,2.53-1.93,3.68c-1.49,2.35-3.44,4.39-5.58,6.2
			c-4.32,3.57-9.67,5.8-14.59,8.83c-2.45,1.52-4.91,3.13-6.97,5.35c-0.99,1.12-1.91,2.44-2.33,4.03c-0.22,0.78-0.27,1.61-0.17,2.42
			c-1.77-0.71-3.37-1.74-4.67-3.09c-0.66-2.55-0.45-5.27,0.71-7.67c1.26-2.68,3.4-4.94,5.74-6.91c2.35-1.98,4.95-3.7,7.59-5.38
			c2.63-1.67,5.36-3.34,7.88-5.28c2.53-1.92,4.94-4.04,7.04-6.49c2.09-2.45,3.79-5.3,4.82-8.39c0.51-1.55,0.85-3.13,1.09-4.73
			c0.01-0.04,0.01-0.09,0.02-0.13c0.4,0.53,0.77,1.1,1.08,1.67C211.53,184.48,212.02,185.75,212.35,187.06z M172.28,222.74
			c-0.3-0.62-0.56-1.25-0.81-1.91l-0.36-0.99c-0.11-0.31-0.2-0.62-0.28-0.94c-0.64-2.57-0.43-5.37,0.4-7.98
			c0.82-2.62,2.25-5.06,3.99-7.25c1.75-2.19,3.84-4.14,6.08-5.89l7.01-5.13c4.65-3.47,9.33-7.16,12.79-12.02
			c0.86-1.21,1.63-2.49,2.29-3.81c0.71-1.31,1.27-2.67,1.79-4.08c0.22-0.66,0.42-1.32,0.59-2.01c1.16,1.93,2,4.12,2.34,6.33
			c0.24,1.48,0.19,2.92-0.04,4.45c-0.22,1.51-0.53,3-0.99,4.45c-0.94,2.88-2.49,5.53-4.45,7.87c-1.98,2.34-4.29,4.41-6.74,6.3
			c-1.24,0.94-2.48,1.86-3.78,2.71c-1.3,0.85-2.65,1.66-3.98,2.5c-2.67,1.67-5.34,3.4-7.81,5.44c-2.45,2.04-4.79,4.41-6.25,7.43
			c-0.72,1.5-1.22,3.14-1.35,4.83c-0.01,0.18-0.01,0.35-0.02,0.53C172.56,223.29,172.41,223.02,172.28,222.74z M189.31,231.16
			c-2.61,0.05-5.21-0.15-7.66-0.8c-0.3-0.87-0.4-1.78-0.2-2.69c0.23-1.21,0.95-2.36,1.82-3.39c1.78-2.05,4.11-3.71,6.51-5.2
			c1.04-0.64,2.1-1.26,3.17-1.86c-0.39,0.43-0.77,0.87-1.13,1.34c-0.78,1.09-1.41,2.33-1.72,3.69c-0.06,0.34-0.17,0.68-0.17,1.03
			l-0.03,1.05c0.09,0.69,0.14,1.41,0.41,2.07c0.42,1.34,1.38,2.63,2.7,3.33c0.58,0.32,1.2,0.53,1.82,0.67
			C193.04,230.88,191.2,231.14,189.31,231.16z M220.97,221.3c-0.85,2.51-2.6,4.72-4.71,6.35c-0.52,0.41-1.08,0.77-1.63,1.06
			c-0.26,0.14-0.56,0.25-0.89,0.37c-0.31,0.11-0.62,0.25-0.94,0.34c-1.27,0.41-2.58,0.66-3.9,0.76c-1.32,0.09-2.65,0.03-3.95-0.18
			c-0.53-0.09-1.05-0.2-1.56-0.34c0.95-0.65,1.85-1.37,2.7-2.13c2.24-2.04,4.18-4.35,5.82-6.85c1.66-2.5,2.89-5.27,3.67-8.18
			c0.39-1.55,0.63-3.15,0.69-4.76c0.25,0.41,0.5,0.83,0.75,1.24c1,1.6,1.99,3.17,3.13,4.69c0.65,1.17,1.13,2.44,1.26,3.75
			C221.56,218.72,221.38,220.04,220.97,221.3z"/>
	</g>
	<g>
		<circle class="st22" cx="158.04" cy="127.91" r="6.3"/>
	</g>
	<g>
		<circle class="st22" cx="173.14" cy="118.61" r="3.71"/>
	</g>
	<path class="st10" d="M278.32,169.38l-22.72-17.89c-2.65-2.3-6.61-2.21-9.17,0.2l-7.87,7.44l5.9,10.22
		c0.64,1.12-0.82,2.25-1.74,1.35l-42.21-41.24c-2.76-2.7-7.19-2.67-9.91,0.07l-39.96,40.19c-0.41,0.42-1.09-0.07-0.82-0.59
		l3.93-7.77l-9.51-8.01c-1.83-1.54-4.49-1.54-6.31,0l-22.1,18.68l-3.16,3c0.14-0.96,0.29-1.92,0.47-2.86
		c0.08-0.48,0.17-0.95,0.27-1.42c0.09-0.47,0.19-0.94,0.29-1.41l23.04-19.24c2.86-2.39,7.06-2.24,9.74,0.35l10.45,10.09l33.57-33.82
		c2.98-3,7.83-3.03,10.84-0.06l31.71,31.28c0.54,0.53,1.39,0.58,1.98,0.11l11.98-10.81c2.21-1.99,5.55-2.05,7.82-0.14l22.73,19.08
		h0.01C277.84,167.24,278.09,168.31,278.32,169.38z"/>
</g>
</svg>
